<svg width="84" height="113" viewBox="0 0 84 113" fill="none" xmlns="http://www.w3.org/2000/svg">
<g opacity="0.150902">
<circle cx="7.5" cy="2.5" r="2.5" fill="#FFA042"/>
<circle cx="19.5" cy="2.5" r="2.5" fill="#FFA042"/>
<circle cx="7.5" cy="14.5" r="2.5" fill="#FFA042"/>
<circle cx="19.5" cy="14.5" r="2.5" fill="#FFA042"/>
<circle cx="7.5" cy="26.5" r="2.5" fill="#FFA042"/>
<circle cx="19.5" cy="26.5" r="2.5" fill="#FFA042"/>
<circle cx="7.5" cy="37.5" r="2.5" fill="#FFA042"/>
<circle cx="19.5" cy="37.5" r="2.5" fill="#FFA042"/>
<circle cx="7.5" cy="51.5" r="2.5" fill="#FFA042"/>
<circle cx="19.5" cy="51.5" r="2.5" fill="#FFA042"/>
<circle cx="31.5" cy="2.5" r="2.5" fill="#FFA042"/>
<circle cx="43.5" cy="2.5" r="2.5" fill="#FFA042"/>
<circle cx="56.5" cy="2.5" r="2.5" fill="#FFA042"/>
<circle cx="69.5" cy="2.5" r="2.5" fill="#FFA042"/>
<circle cx="81.5" cy="2.5" r="2.5" fill="#FFA042"/>
<circle cx="31.5" cy="14.5" r="2.5" fill="#FFA042"/>
<circle cx="43.5" cy="14.5" r="2.5" fill="#FFA042"/>
<circle cx="56.5" cy="14.5" r="2.5" fill="#FFA042"/>
<circle cx="69.5" cy="14.5" r="2.5" fill="#FFA042"/>
<circle cx="81.5" cy="14.5" r="2.5" fill="#FFA042"/>
<circle cx="31.5" cy="26.5" r="2.5" fill="#FFA042"/>
<circle cx="43.5" cy="26.5" r="2.5" fill="#FFA042"/>
<circle cx="56.5" cy="26.5" r="2.5" fill="#FFA042"/>
<circle cx="69.5" cy="26.5" r="2.5" fill="#FFA042"/>
<circle cx="81.5" cy="26.5" r="2.5" fill="#FFA042"/>
<circle cx="31.5" cy="37.5" r="2.5" fill="#FFA042"/>
<circle cx="43.5" cy="37.5" r="2.5" fill="#FFA042"/>
<circle cx="56.5" cy="37.5" r="2.5" fill="#FFA042"/>
<circle cx="69.5" cy="37.5" r="2.5" fill="#FFA042"/>
<circle cx="81.5" cy="37.5" r="2.5" fill="#FFA042"/>
<circle cx="31.5" cy="51.5" r="2.5" fill="#FFA042"/>
<circle cx="43.5" cy="51.5" r="2.5" fill="#FFA042"/>
<circle cx="56.5" cy="51.5" r="2.5" fill="#FFA042"/>
<circle cx="69.5" cy="51.5" r="2.5" fill="#FFA042"/>
<circle cx="81.5" cy="51.5" r="2.5" fill="#FFA042"/>
<circle cx="7.5" cy="61.5" r="2.5" fill="#FFA042"/>
<circle cx="19.5" cy="61.5" r="2.5" fill="#FFA042"/>
<circle cx="7.5" cy="75.5" r="2.5" fill="#FFA042"/>
<circle cx="19.5" cy="75.5" r="2.5" fill="#FFA042"/>
<circle cx="7.5" cy="86.5" r="2.5" fill="#FFA042"/>
<circle cx="19.5" cy="86.5" r="2.5" fill="#FFA042"/>
<circle cx="7.5" cy="98.5" r="2.5" fill="#FFA042"/>
<circle cx="19.5" cy="98.5" r="2.5" fill="#FFA042"/>
<circle cx="7.5" cy="110.5" r="2.5" fill="#FFA042"/>
<circle cx="19.5" cy="110.5" r="2.5" fill="#FFA042"/>
<circle cx="31.5" cy="61.5" r="2.5" fill="#FFA042"/>
<circle cx="43.5" cy="61.5" r="2.5" fill="#FFA042"/>
<circle cx="56.5" cy="61.5" r="2.5" fill="#FFA042"/>
<circle cx="69.5" cy="61.5" r="2.5" fill="#FFA042"/>
<circle cx="81.5" cy="61.5" r="2.5" fill="#FFA042"/>
<circle cx="31.5" cy="75.5" r="2.5" fill="#FFA042"/>
<circle cx="43.5" cy="75.5" r="2.5" fill="#FFA042"/>
<circle cx="56.5" cy="75.5" r="2.5" fill="#FFA042"/>
<circle cx="69.5" cy="75.5" r="2.5" fill="#FFA042"/>
<circle cx="81.5" cy="75.5" r="2.5" fill="#FFA042"/>
<circle cx="31.5" cy="86.5" r="2.5" fill="#FFA042"/>
<circle cx="43.5" cy="86.5" r="2.5" fill="#FFA042"/>
<circle cx="56.5" cy="86.5" r="2.5" fill="#FFA042"/>
<circle cx="69.5" cy="86.5" r="2.5" fill="#FFA042"/>
<circle cx="81.5" cy="86.5" r="2.5" fill="#FFA042"/>
<circle cx="31.5" cy="98.5" r="2.5" fill="#FFA042"/>
<circle cx="43.5" cy="98.5" r="2.5" fill="#FFA042"/>
<circle cx="56.5" cy="98.5" r="2.5" fill="#FFA042"/>
<circle cx="69.5" cy="98.5" r="2.5" fill="#FFA042"/>
<circle cx="81.5" cy="98.5" r="2.5" fill="#FFA042"/>
<circle cx="31.5" cy="110.5" r="2.5" fill="#FFA042"/>
<circle cx="43.5" cy="110.5" r="2.5" fill="#FFA042"/>
<circle cx="56.5" cy="110.5" r="2.5" fill="#FFA042"/>
<circle cx="69.5" cy="110.5" r="2.5" fill="#FFA042"/>
<circle cx="81.5" cy="110.5" r="2.5" fill="#FFA042"/>
</g>
</svg>
