<svg width="48" height="48" viewBox="0 0 48 48" fill="none" xmlns="http://www.w3.org/2000/svg">
<circle cx="24" cy="24" r="24" fill="#7B61FF"/>
<path fill-rule="evenodd" clip-rule="evenodd" d="M15.19 31.989L13 32.292L14.594 33.824L14.205 36L16.154 34.957L18.104 36L17.715 33.824L19.309 32.292L17.119 31.989L16.154 30L15.19 31.989ZM23.19 31.989L21 32.292L22.594 33.824L22.205 36L24.154 34.957L26.104 36L25.715 33.824L27.309 32.292L25.119 31.989L24.154 30L23.19 31.989ZM30.881 31.989L28.691 32.292L30.285 33.824L29.896 36L31.845 34.957L33.795 36L33.406 33.824L35 32.292L32.81 31.989L31.845 30L30.881 31.989ZM30.752 24.818C28.316 24.256 25.546 23.763 26.644 21.689C29.986 15.376 27.53 12 24 12C20.401 12 18.004 15.506 21.356 21.689C22.487 23.775 19.631 24.268 17.247 24.818C15.071 25.32 14.989 26.401 14.996 28.292L15 29H33L33.003 28.314C33.011 26.41 32.937 25.322 30.752 24.818Z" fill="white"/>
</svg>
