<svg width="294" height="54" viewBox="0 0 294 54" fill="none" xmlns="http://www.w3.org/2000/svg">
<g clip-path="url(#clip0_183_3330)">
<g clip-path="url(#clip1_183_3330)">
<path d="M48.2041 34.0076C47.6327 32.4824 46.898 31.1221 45.9592 29.8855C44.9796 28.6901 43.8367 27.5359 42.5306 26.629C42.2041 26.3817 41.9592 26.0107 41.8776 25.5985C41.7959 25.145 41.8775 24.774 42.1633 24.4855C44.3673 21.8061 45.4694 18.8382 45.4694 15.5817C45.4694 12.0779 44.3265 8.94504 41.9184 6.14198C39.5102 3.38015 36.449 1.52519 32.7347 0.659542C31.1837 0.28855 29.6735 0 28.2449 0H7.67347C7.18367 0 6.81633 0.164886 6.53061 0.494657C6.20408 0.783206 6 1.19542 6 1.60763V52.3924C6 52.887 6.16327 53.258 6.53061 53.5053C6.85714 53.7939 7.26531 54 7.67347 54H31.7959C33.102 54 34.4898 53.7939 36 53.4229C39.7959 52.5573 42.8571 50.7435 45.3469 47.9405C47.7959 45.1786 49.0204 42.0046 49.0204 38.4183C49.0204 37.0168 48.6939 35.4916 48.2041 34.0076ZM37.1837 40.7267C34.6939 43.9008 31.2653 45.6321 26.898 45.9618C26.3673 46.0031 25.9184 46.0443 25.4286 46.0443C22.2857 46.0443 19.4694 45.2198 16.898 43.571C14.3265 41.9221 12.6122 39.7786 11.7143 37.2229C11.5102 36.6458 11.551 36.1099 11.9184 35.6153C12.2041 35.0794 12.6939 34.7908 13.2653 34.7084L17.551 34.1313C18.4082 34.0076 19.0612 34.3374 19.4694 35.0382C19.7551 35.6977 20.2449 36.1924 20.9796 36.687C21.6735 37.1817 22.4898 37.5527 23.4286 37.7588C24.3673 37.9649 25.3061 38.0473 26.2857 38.0061C28.449 37.8 30.0816 37.0168 31.102 35.574C31.7551 34.7908 32 34.0076 31.8776 33.1008C31.7551 32.1115 31.2245 31.4107 30.3265 30.8748C29.3878 30.3802 27.7959 29.8855 25.4286 29.3496C23.4694 28.9786 22.1224 28.5664 21.2653 28.2366C18.2449 26.9176 16.1633 25.0214 14.9796 22.5069C13.8367 19.9924 13.8367 17.3542 14.9796 14.5099C15.9592 12.1191 17.7143 10.3466 20.3265 9.23359C22.9388 8.12061 25.7143 7.74962 28.6939 8.36794C30.3673 8.69771 32.0408 9.52214 33.7143 10.8412C35.3469 12.1603 36.4898 13.7679 37.0204 15.7878C37.2245 16.3649 37.1429 16.9008 36.7755 17.3954C36.4082 17.9313 35.9184 18.1786 35.2653 18.1786L30.6531 18.2611C30.0816 18.3023 29.5918 18.055 29.1837 17.4779C28.6122 16.8183 27.8776 16.4061 27.0204 16.2824C25.9184 16.0351 24.8571 16.0763 23.9592 16.3649C23.0612 16.6534 22.449 17.1069 22.2041 17.684C21.6327 19.0443 22.3265 20.116 24.2857 20.858C24.6122 21.0229 25.551 21.229 26.9388 21.6412C28.0816 21.8885 29.0612 22.1359 29.8367 22.3008C30.6122 22.4656 31.5918 22.8779 32.8571 23.3725C34.1224 23.8672 35.1837 24.4855 36 25.1863C36.8163 25.8458 37.551 26.7939 38.3265 27.9893C39.0204 29.1847 39.4694 30.5863 39.7143 32.1527C40.1633 35.2855 39.3061 38.171 37.1837 40.7267Z" fill="white"/>
<path d="M75.8372 43.0762C73.878 43.4472 72.0821 43.3235 70.4902 42.664C68.8984 42.0044 67.7963 41.18 67.1433 40.2319C67.1433 41.0564 66.8576 41.7571 66.2861 42.3342C65.7147 42.9113 65.0208 43.1999 64.2045 43.1999H63.5106C63.1841 43.1999 62.8576 43.0762 62.6535 42.8289C62.4086 42.5815 62.2861 42.293 62.2861 41.922V9.48078C62.2861 9.27468 62.327 9.06857 62.4494 8.86246C62.5719 8.65635 62.6943 8.53269 62.8984 8.40903C63.1025 8.28536 63.3065 8.24414 63.5106 8.24414H65.9188C66.2453 8.24414 66.5718 8.3678 66.7759 8.61513C66.98 8.86246 67.1433 9.15101 67.1433 9.48078V22.5892C69.1025 21.2289 71.2249 20.5281 73.5514 20.5281C75.7555 20.5281 77.7555 21.1052 79.5923 22.3006C81.429 23.496 82.8167 25.1037 83.7555 27.0823C84.6943 29.1022 85.0208 31.2457 84.6943 33.5128C84.3678 35.8625 83.3882 37.9235 81.7555 39.6961C80.1229 41.5098 78.1637 42.6228 75.8372 43.0762ZM73.5514 25.4747C71.7963 25.4747 70.2861 26.093 69.0208 27.3709C67.7555 28.6487 67.1433 30.1739 67.1433 31.9464C67.1433 33.719 67.7555 35.2441 69.0208 36.522C70.2861 37.7999 71.7963 38.4182 73.5514 38.4182C75.3065 38.4182 76.8167 37.7999 78.0821 36.522C79.3474 35.2441 79.9596 33.719 79.9596 31.9464C79.9596 31.0808 79.7963 30.2564 79.429 29.4732C79.1025 28.6487 78.6127 27.9892 78.0821 27.4121C77.5514 26.835 76.8576 26.3815 76.0412 26.0518C75.2657 25.6396 74.4086 25.4747 73.5514 25.4747Z" fill="white"/>
<path d="M107.593 39.9436C105.389 42.1695 102.736 43.2825 99.6335 43.2825C96.5314 43.2825 93.8784 42.1695 91.6743 39.9436C89.4702 37.7176 88.3682 35.0382 88.3682 31.9054C88.3682 28.7726 89.4702 26.0932 91.6743 23.8673C93.8784 21.6413 96.5314 20.5283 99.6335 20.5283C102.736 20.5283 105.389 21.6413 107.593 23.8673C109.797 26.0932 110.899 28.7726 110.899 31.9054C110.899 35.0382 109.797 37.7176 107.593 39.9436ZM99.6335 25.4749C98.4906 25.4749 97.3886 25.7634 96.4498 26.3405C95.4702 26.9176 94.6947 27.7008 94.1233 28.6902C93.5518 29.6795 93.2661 30.7512 93.2661 31.9054C93.2661 33.6779 93.8784 35.2031 95.1437 36.481C96.409 37.7589 97.9192 38.3772 99.6743 38.3772C101.429 38.3772 102.94 37.7589 104.205 36.481C105.47 35.2031 106.082 33.6779 106.082 31.9054C106.082 31.0398 105.919 30.2153 105.552 29.4321C105.225 28.6077 104.736 27.9482 104.205 27.3711C103.674 26.794 102.98 26.3405 102.164 26.0108C101.348 25.6398 100.531 25.4749 99.6335 25.4749Z" fill="white"/>
<path d="M133.715 39.9436C131.511 42.1695 128.858 43.2825 125.756 43.2825C122.654 43.2825 120 42.1695 117.796 39.9436C115.592 37.7176 114.49 35.0382 114.49 31.9054C114.49 28.7726 115.592 26.0932 117.796 23.8673C120 21.6413 122.654 20.5283 125.756 20.5283C128.858 20.5283 131.511 21.6413 133.715 23.8673C135.919 26.0932 137.021 28.7726 137.021 31.9054C136.98 35.0382 135.919 37.7176 133.715 39.9436ZM125.756 25.4749C124.613 25.4749 123.511 25.7634 122.572 26.3405C121.592 26.9176 120.817 27.7008 120.245 28.6902C119.674 29.6795 119.388 30.7512 119.388 31.9054C119.388 33.6779 120 35.2031 121.266 36.481C122.531 37.7589 124.041 38.3772 125.796 38.3772C127.551 38.3772 129.062 37.7589 130.327 36.481C131.592 35.2031 132.205 33.6779 132.205 31.9054C132.205 31.0398 132.041 30.2153 131.674 29.4321C131.347 28.6077 130.858 27.9482 130.327 27.3711C129.796 26.794 129.102 26.3405 128.286 26.0108C127.47 25.6398 126.654 25.4749 125.756 25.4749Z" fill="white"/>
<path d="M145.306 40.067V42.2106C145.306 42.4991 145.225 42.7464 145.021 42.9113C144.817 43.1174 144.612 43.1999 144.368 43.1999H141.388C141.143 43.1999 140.898 43.1174 140.735 42.9113C140.572 42.7052 140.449 42.4991 140.449 42.2106V9.19223C140.449 8.9449 140.531 8.69758 140.735 8.53269C140.939 8.36781 141.143 8.24414 141.388 8.24414H144.368C144.612 8.24414 144.857 8.32658 145.021 8.53269C145.225 8.7388 145.306 8.9449 145.306 9.19223V30.6686C145.306 30.9159 145.388 31.0808 145.51 31.122C145.633 31.1632 145.796 31.0808 146 30.9159L154.041 21.5586C154.449 21.064 154.98 20.8579 155.592 20.8579H160.164C160.408 20.8579 160.572 20.9403 160.653 21.064C160.735 21.1877 160.653 21.3525 160.531 21.5586L152.245 31.2044C152.041 31.4106 151.959 31.6167 151.959 31.9052C151.959 32.1938 152.041 32.4411 152.245 32.606L161.061 42.4991C161.266 42.7052 161.306 42.8701 161.266 42.9938C161.184 43.1174 161.061 43.1999 160.776 43.1999H156.123C155.51 43.1999 154.98 42.9525 154.531 42.4991L149.061 36.3571C148.857 36.151 148.653 36.0273 148.408 36.0273C148.164 36.0273 147.959 36.151 147.796 36.3571L146.041 38.3357C145.551 38.8716 145.306 39.4487 145.306 40.067Z" fill="white"/>
<path d="M170.858 43.4883C168.94 43.4883 167.184 42.9937 165.633 41.9631C164.082 40.9326 162.98 39.6547 162.45 38.0471C162.327 37.7173 162.368 37.3463 162.572 37.0578C162.776 36.728 163.062 36.5631 163.389 36.4807L166.042 36.1509C166.572 36.0685 166.98 36.2746 167.225 36.728C167.429 37.099 167.715 37.4288 168.123 37.7586C168.531 38.0471 169.021 38.2944 169.593 38.4181C170.164 38.5418 170.735 38.6242 171.348 38.583C172.654 38.4593 173.633 37.9647 174.327 37.099C174.735 36.6044 174.899 36.1097 174.817 35.5738C174.735 34.9555 174.45 34.5021 173.878 34.2135C173.307 33.925 172.327 33.5952 170.858 33.3067C169.674 33.0593 168.817 32.812 168.327 32.6059C166.491 31.8227 165.184 30.6273 164.45 29.1021C163.715 27.5357 163.715 25.928 164.45 24.1967C165.062 22.754 166.123 21.641 167.715 20.9402C169.307 20.2395 171.021 20.0334 172.858 20.4044C173.878 20.6105 174.939 21.1463 175.919 21.9296C176.939 22.7128 177.633 23.7433 177.96 24.9799C178.082 25.3097 178.042 25.6807 177.797 25.9692C177.552 26.299 177.266 26.4639 176.899 26.4639L174.082 26.5051C173.756 26.5463 173.429 26.3815 173.184 26.0105C172.858 25.5983 172.409 25.3509 171.878 25.2685C171.184 25.1036 170.572 25.1448 170.001 25.3097C169.429 25.4746 169.062 25.7631 168.899 26.1341C168.572 26.9586 168.98 27.6181 170.164 28.0715C170.368 28.154 170.94 28.3189 171.797 28.5662C172.531 28.7311 173.103 28.8547 173.552 28.9784C174.001 29.1021 174.613 29.3082 175.429 29.638C176.205 29.9677 176.858 30.3387 177.348 30.7509C177.837 31.1631 178.327 31.7402 178.776 32.4822C179.225 33.2242 179.511 34.0899 179.633 35.038C179.878 36.9341 179.348 38.6654 178.082 40.2731C176.531 42.2105 174.45 43.2822 171.797 43.4883C171.429 43.4883 171.144 43.4883 170.858 43.4883Z" fill="white"/>
<path d="M188.164 23.5369C188.449 23.1247 188.858 22.7125 189.347 22.3415C189.837 21.9293 190.49 21.5583 191.266 21.2285C192.041 20.8987 192.898 20.6514 193.796 20.569C194.735 20.4865 195.756 20.5278 196.858 20.6926C199.184 21.1461 201.143 22.2178 202.776 23.9904C204.409 25.7629 205.388 27.8239 205.715 30.1736C206.041 32.4407 205.715 34.5842 204.776 36.6041C203.837 38.6239 202.449 40.2316 200.654 41.3858C198.817 42.5812 196.817 43.1583 194.572 43.1583C192.245 43.1583 190.123 42.4575 188.164 41.0972V52.7629C188.164 52.969 188.123 53.1751 188.001 53.3812C187.878 53.5873 187.756 53.711 187.552 53.8346C187.347 53.9583 187.143 53.9995 186.939 53.9995H184.531C184.205 53.9995 183.878 53.8759 183.674 53.6285C183.429 53.3812 183.307 53.0926 183.307 52.7629V21.7232C183.307 21.3934 183.429 21.0636 183.674 20.8163C183.919 20.569 184.205 20.4453 184.531 20.4453H185.225C186.041 20.4453 186.735 20.7339 187.307 21.311C187.878 22.0117 188.164 22.7125 188.164 23.5369ZM190.041 27.2881C188.776 28.5659 188.164 30.0911 188.164 31.8636C188.164 33.6362 188.776 35.1613 190.041 36.4392C191.307 37.7171 192.817 38.3354 194.572 38.3354C195.715 38.3354 196.817 38.0468 197.756 37.4697C198.735 36.8926 199.511 36.1094 200.082 35.1201C200.654 34.1308 200.939 33.0591 200.939 31.9049C200.939 30.1323 200.327 28.6071 199.062 27.3293C197.796 26.0514 196.286 25.4331 194.531 25.4331C192.817 25.3919 191.307 26.0514 190.041 27.2881Z" fill="white"/>
<path d="M227.674 39.9436C225.47 42.1695 222.817 43.2825 219.715 43.2825C216.612 43.2825 213.959 42.1695 211.755 39.9436C209.551 37.7176 208.449 35.0382 208.449 31.9054C208.449 28.7726 209.551 26.0932 211.755 23.8673C213.959 21.6413 216.612 20.5283 219.715 20.5283C222.817 20.5283 225.47 21.6413 227.674 23.8673C229.878 26.0932 230.98 28.7726 230.98 31.9054C230.98 35.0382 229.878 37.7176 227.674 39.9436ZM219.755 25.4749C218.612 25.4749 217.51 25.7634 216.572 26.3405C215.592 26.9176 214.817 27.7008 214.245 28.6902C213.674 29.6795 213.388 30.7512 213.388 31.9054C213.388 33.6779 214 35.2031 215.266 36.481C216.531 37.7589 218.041 38.3772 219.796 38.3772C221.551 38.3772 223.061 37.7589 224.327 36.481C225.592 35.2031 226.204 33.6779 226.204 31.9054C226.204 31.0398 226.041 30.2153 225.674 29.4321C225.347 28.6077 224.857 27.9482 224.327 27.3711C223.796 26.794 223.102 26.3405 222.286 26.0108C221.429 25.6398 220.613 25.4749 219.755 25.4749Z" fill="white"/>
<path d="M239.715 23.0426C241.184 21.3938 242.817 20.5693 244.572 20.5693C245.184 20.5693 245.755 20.6518 246.368 20.7754C246.531 20.8167 246.653 20.8579 246.817 20.9815C246.939 21.1052 247.061 21.2289 247.184 21.3938C247.266 21.5586 247.306 21.7235 247.306 21.9296V24.609C247.306 24.98 247.143 25.3098 246.857 25.5159C246.572 25.722 246.204 25.8045 245.837 25.722C245.102 25.5159 244.368 25.5159 243.633 25.6396C242.49 25.8869 241.551 26.5052 240.817 27.4533C240.082 28.4014 239.715 29.4732 239.715 30.6686V42.1693C239.715 42.4991 239.592 42.7464 239.388 42.9938C239.184 43.1999 238.898 43.3235 238.572 43.3235H236C235.674 43.3235 235.429 43.1999 235.184 42.9938C234.98 42.7877 234.857 42.4991 234.857 42.1693V21.8472C234.857 21.5999 234.939 21.3938 235.102 21.1877C235.266 21.0228 235.47 20.9403 235.755 20.9403H238.817C239.062 20.9403 239.266 21.0228 239.47 21.1877C239.633 21.3525 239.715 21.5586 239.715 21.8472V23.0426Z" fill="white"/>
<path d="M257.103 11.6653C257.47 11.4592 257.878 11.4592 258.246 11.6653C258.654 11.8714 258.817 12.2012 258.817 12.6546V19.4149C258.817 19.7447 258.94 19.992 259.144 20.2394C259.348 20.4867 259.633 20.6104 259.96 20.6104H263.674C264.001 20.6104 264.246 20.734 264.491 20.9401C264.695 21.1462 264.817 21.4348 264.817 21.7646V24.3203C264.817 24.6501 264.695 24.9386 264.491 25.1859C264.287 25.392 264.001 25.5157 263.674 25.5157H259.96C259.633 25.5157 259.389 25.6394 259.144 25.8455C258.94 26.0516 258.817 26.3401 258.817 26.6699V35.0791C258.817 35.821 259.021 36.4806 259.47 37.0577C259.919 37.6348 260.491 38.047 261.225 38.2119C261.756 38.3768 262.042 38.7478 262.042 39.3661V41.963C262.042 42.2928 261.919 42.6226 261.674 42.8287C261.429 43.076 261.144 43.1585 260.776 43.076C258.817 42.7462 257.225 41.8394 255.919 40.3142C254.613 38.789 253.96 37.0165 253.96 34.9966V26.6287C253.96 26.2989 253.838 26.0516 253.633 25.8043C253.429 25.5981 253.144 25.4745 252.817 25.4745H251.511C251.184 25.4745 250.94 25.3508 250.695 25.1035C250.491 24.8562 250.368 24.6088 250.368 24.2791V21.7233C250.368 21.3936 250.491 21.1462 250.695 20.8989C250.899 20.6928 251.184 20.5691 251.511 20.5691H252.817C253.144 20.5691 253.389 20.4455 253.633 20.1981C253.838 19.9508 253.96 19.7035 253.96 19.3737V14.1386C253.96 13.6852 254.164 13.3554 254.531 13.1493L257.103 11.6653Z" fill="white"/>
<path d="M275.184 43.4883C273.266 43.4883 271.511 42.9937 269.96 41.9631C268.409 40.9326 267.307 39.6547 266.776 38.0471C266.653 37.7173 266.694 37.3463 266.898 37.0578C267.102 36.728 267.388 36.5631 267.715 36.4807L270.368 36.1509C270.898 36.0685 271.307 36.2746 271.551 36.728C271.755 37.099 272.041 37.4288 272.449 37.7586C272.858 38.0471 273.347 38.2944 273.919 38.4181C274.49 38.5418 275.062 38.6242 275.674 38.583C276.98 38.4593 277.96 37.9647 278.653 37.099C279.062 36.6044 279.225 36.1097 279.143 35.5738C279.062 34.9555 278.776 34.5021 278.204 34.2135C277.633 33.925 276.653 33.5952 275.184 33.3067C274 33.0593 273.143 32.812 272.653 32.6059C270.817 31.8227 269.511 30.6273 268.776 29.1021C268.041 27.5357 268.041 25.928 268.776 24.1967C269.388 22.754 270.449 21.641 272.041 20.9402C273.633 20.2395 275.347 20.0334 277.184 20.4044C278.204 20.6105 279.266 21.1463 280.245 21.9296C281.266 22.7128 281.96 23.7433 282.286 24.9799C282.409 25.3097 282.368 25.6807 282.123 25.9692C281.878 26.299 281.592 26.4639 281.225 26.4639L278.409 26.5051C278.082 26.5463 277.755 26.3815 277.511 26.0105C277.184 25.5983 276.735 25.3509 276.204 25.2685C275.511 25.1036 274.898 25.1448 274.327 25.3097C273.755 25.4746 273.388 25.7631 273.225 26.1341C272.898 26.9586 273.307 27.6181 274.49 28.0715C274.694 28.154 275.266 28.3189 276.123 28.5662C276.858 28.7311 277.429 28.8547 277.878 28.9784C278.327 29.1021 278.939 29.3082 279.755 29.638C280.531 29.9677 281.184 30.3387 281.674 30.7509C282.164 31.1631 282.653 31.7402 283.102 32.4822C283.551 33.2242 283.837 34.0899 283.96 35.038C284.204 36.9341 283.674 38.6654 282.409 40.2731C280.858 42.2105 278.776 43.2822 276.123 43.4883C275.796 43.4883 275.47 43.4883 275.184 43.4883Z" fill="white"/>
</g>
</g>
<defs>
<clipPath id="clip0_183_3330">
<rect width="294" height="54" fill="white"/>
</clipPath>
<clipPath id="clip1_183_3330">
<rect width="278" height="54" fill="white" transform="translate(6)"/>
</clipPath>
</defs>
</svg>
