<svg width="48" height="48" viewBox="0 0 48 48" fill="none" xmlns="http://www.w3.org/2000/svg">
<circle cx="24" cy="24" r="24" fill="#3671D5"/>
<g clip-path="url(#clip0_737_3205)">
<path fill-rule="evenodd" clip-rule="evenodd" d="M28.965 22.694L27.928 21.657L26.891 22.694L27.928 23.731L27.221 24.438L26.184 23.401L25.147 24.438L26.184 25.474L25.477 26.181L24.438 25.144L23.401 26.181L24.438 27.217L23.731 27.924L22.694 26.888L21.657 27.925L22.694 28.961L21.987 29.668L18.497 26.181L19.205 25.474L20.242 26.511L21.28 25.474L20.242 24.438L20.95 23.731L21.987 24.767L23.024 23.731L21.987 22.694L22.694 21.987L23.731 23.024L24.768 21.987L23.731 20.951L24.438 20.244L25.477 21.28L26.514 20.244L25.477 19.207L26.184 18.5L29.672 21.987L28.965 22.694ZM21.384 14.176C19.894 15.008 18.491 16.054 17.271 17.274C16.007 18.537 14.979 19.939 14.171 21.387C14.62 26.458 20.866 32.798 26.537 34.053C28.053 33.276 29.549 32.243 30.899 30.893C32.193 29.601 33.244 28.112 34.055 26.54C32.812 20.874 26.458 14.618 21.384 14.176ZM12.842 24.374C12.289 26.006 12.001 27.628 12.001 29.123C12.001 31.341 12.619 33.219 13.78 34.381C14.825 35.424 16.646 36 18.909 36C20.284 36 21.929 35.765 23.65 35.231C18.94 33.237 14.508 28.798 12.842 24.374ZM24.39 12.837C25.978 12.295 27.592 12 29.137 12C31.371 12 33.236 12.634 34.389 13.788C35.436 14.833 36 16.698 36 18.923C36 20.455 35.742 22.069 35.242 23.665C33.252 18.949 28.813 14.512 24.39 12.837Z" fill="white"/>
</g>
<defs>
<clipPath id="clip0_737_3205">
<rect width="24" height="24" fill="white" transform="translate(12 12)"/>
</clipPath>
</defs>
</svg>
