<svg width="33" height="32" viewBox="0 0 33 32" fill="none" xmlns="http://www.w3.org/2000/svg">
<path d="M31.6947 15.95C31.6947 24.4141 24.7863 31.2825 16.2557 31.2825C7.72507 31.2825 0.816682 24.4141 0.816682 15.95C0.816682 7.48594 7.72507 0.617463 16.2557 0.617463C24.7863 0.617463 31.6947 7.48594 31.6947 15.95Z" stroke="#3671D5" stroke-width="1.23493"/>
<ellipse cx="16.2557" cy="15.9504" rx="6.13267" ry="6.09201" stroke="#3671D5" stroke-width="1.44342" stroke-linecap="round" stroke-linejoin="round"/>
<path d="M10.123 15.9501H22.3884" stroke="#3671D5" stroke-width="1.44342" stroke-linecap="round" stroke-linejoin="round"/>
<path fill-rule="evenodd" clip-rule="evenodd" d="M16.2557 9.8584C17.7897 11.5266 18.6614 13.6915 18.7088 15.9504C18.6614 18.2093 17.7897 20.3742 16.2557 22.0424C14.7218 20.3742 13.85 18.2093 13.8027 15.9504C13.85 13.6915 14.7218 11.5266 16.2557 9.8584V9.8584Z" stroke="#3671D5" stroke-width="1.44342" stroke-linecap="round" stroke-linejoin="round"/>
</svg>
