<svg width="16" height="16" viewBox="0 0 16 16" fill="none" xmlns="http://www.w3.org/2000/svg">
<path d="M7.99999 2.26129C9.86908 2.26129 10.0905 2.2684 10.8286 2.30208C11.5111 2.33323 11.8817 2.44726 12.1284 2.5431C12.4551 2.67008 12.6883 2.8218 12.9333 3.06674C13.1782 3.31167 13.3299 3.54489 13.4569 3.8716C13.5527 4.11829 13.6668 4.48893 13.6979 5.1714C13.7316 5.90955 13.7387 6.13092 13.7387 8.00001C13.7387 9.8691 13.7316 10.0905 13.6979 10.8286C13.6668 11.5111 13.5527 11.8817 13.4569 12.1284C13.3299 12.4551 13.1782 12.6884 12.9333 12.9333C12.6883 13.1782 12.4551 13.3299 12.1284 13.4569C11.8817 13.5528 11.5111 13.6668 10.8286 13.698C10.0906 13.7316 9.86919 13.7387 7.99999 13.7387C6.13079 13.7387 5.90941 13.7316 5.1714 13.698C4.48891 13.6668 4.11826 13.5528 3.8716 13.4569C3.54486 13.3299 3.31165 13.1782 3.06671 12.9333C2.82177 12.6884 2.67005 12.4551 2.5431 12.1284C2.44723 11.8817 2.3332 11.5111 2.30205 10.8286C2.26837 10.0905 2.26126 9.8691 2.26126 8.00001C2.26126 6.13092 2.26837 5.90955 2.30205 5.17143C2.3332 4.48893 2.44723 4.11829 2.5431 3.8716C2.67005 3.54489 2.82177 3.31167 3.06671 3.06674C3.31165 2.8218 3.54486 2.67008 3.8716 2.5431C4.11826 2.44726 4.48891 2.33323 5.17137 2.30208C5.90952 2.2684 6.1309 2.26129 7.99999 2.26129ZM7.99999 1C6.09889 1 5.86053 1.00806 5.11391 1.04212C4.36881 1.07614 3.85999 1.19445 3.41471 1.3675C2.95439 1.54639 2.56402 1.78575 2.17487 2.1749C1.78572 2.56405 1.54637 2.95442 1.36748 3.41473C1.19442 3.86001 1.07611 4.36884 1.0421 5.11394C1.00803 5.86053 1 6.09891 1 8.00001C1 9.90111 1.00803 10.1395 1.0421 10.8861C1.07611 11.6312 1.19442 12.14 1.36748 12.5853C1.54637 13.0456 1.78572 13.436 2.17487 13.8251C2.56402 14.2143 2.95439 14.4536 3.41471 14.6325C3.85999 14.8056 4.36881 14.9239 5.11391 14.9579C5.86053 14.992 6.09889 15 7.99999 15C9.90109 15 10.1395 14.992 10.8861 14.9579C11.6312 14.9239 12.14 14.8056 12.5853 14.6325C13.0456 14.4536 13.436 14.2143 13.8251 13.8251C14.2143 13.436 14.4536 13.0456 14.6325 12.5853C14.8055 12.14 14.9239 11.6312 14.9579 10.8861C14.9919 10.1395 15 9.90111 15 8.00001C15 6.09891 14.9919 5.86053 14.9579 5.11394C14.9239 4.36884 14.8055 3.86001 14.6325 3.41473C14.4536 2.95442 14.2143 2.56405 13.8251 2.1749C13.436 1.78575 13.0456 1.54639 12.5853 1.3675C12.14 1.19445 11.6312 1.07614 10.8861 1.04212C10.1395 1.00806 9.90109 1 7.99999 1ZM7.99999 4.40541C6.01475 4.40541 4.40538 6.01478 4.40538 8.00001C4.40538 9.98525 6.01475 11.5946 7.99999 11.5946C9.98522 11.5946 11.5946 9.98525 11.5946 8.00001C11.5946 6.01478 9.98522 4.40541 7.99999 4.40541ZM7.99999 10.3334C6.71133 10.3334 5.66664 9.28867 5.66664 8.00001C5.66664 6.71136 6.71133 5.66667 7.99999 5.66667C9.28864 5.66667 10.3333 6.71136 10.3333 8.00001C10.3333 9.28867 9.28864 10.3334 7.99999 10.3334ZM12.5766 4.26339C12.5766 4.72731 12.2005 5.10341 11.7366 5.10341C11.2727 5.10341 10.8966 4.72731 10.8966 4.26339C10.8966 3.79947 11.2727 3.4234 11.7366 3.4234C12.2005 3.4234 12.5766 3.79947 12.5766 4.26339Z" fill="white"/>
</svg>
