<svg width="32" height="32" viewBox="0 0 32 32" fill="none" xmlns="http://www.w3.org/2000/svg">
<circle cx="15.95" cy="15.95" r="15.3325" fill="#3671D5" stroke="#3671D5" stroke-width="1.23493"/>
<rect x="10" y="10" width="12.2653" height="12.184" rx="3.60855" stroke="white" stroke-width="1.44342" stroke-linecap="round" stroke-linejoin="round"/>
<rect x="10" y="10" width="12.2653" height="12.184" rx="3.60855" stroke="white" stroke-opacity="0.2" stroke-width="1.44342" stroke-linecap="round" stroke-linejoin="round"/>
<path fill-rule="evenodd" clip-rule="evenodd" d="M18.5867 15.7084C18.7419 16.7483 18.2083 17.7698 17.263 18.2425C16.3178 18.7151 15.1739 18.5323 14.4256 17.7889C13.6773 17.0456 13.4932 15.9093 13.969 14.9703C14.4448 14.0312 15.4732 13.5012 16.52 13.6554C17.5889 13.8128 18.4282 14.6466 18.5867 15.7084Z" stroke="white" stroke-width="1.44342" stroke-linecap="round" stroke-linejoin="round"/>
<path fill-rule="evenodd" clip-rule="evenodd" d="M18.5867 15.7084C18.7419 16.7483 18.2083 17.7698 17.263 18.2425C16.3178 18.7151 15.1739 18.5323 14.4256 17.7889C13.6773 17.0456 13.4932 15.9093 13.969 14.9703C14.4448 14.0312 15.4732 13.5012 16.52 13.6554C17.5889 13.8128 18.4282 14.6466 18.5867 15.7084Z" stroke="white" stroke-opacity="0.2" stroke-width="1.44342" stroke-linecap="round" stroke-linejoin="round"/>
</svg>
