<svg width="21" height="20" viewBox="0 0 21 20" fill="none" xmlns="http://www.w3.org/2000/svg">
<path fill-rule="evenodd" clip-rule="evenodd" d="M11.8006 1.04633C12.2169 1.17755 12.5 1.5636 12.5 2.00007V7.00007L16.5 7.00007C16.8729 7.00007 17.2148 7.20753 17.387 7.53826C17.5592 7.86899 17.5331 8.26806 17.3192 8.57353L10.3192 18.5735C10.0689 18.9311 9.61564 19.085 9.19936 18.9538C8.78309 18.8226 8.5 18.4365 8.5 18.0001L8.5 13.0001H4.5C4.12713 13.0001 3.78522 12.7926 3.61302 12.4619C3.44083 12.1312 3.46694 11.7321 3.68077 11.4266L10.6808 1.42661C10.9311 1.06904 11.3844 0.915114 11.8006 1.04633Z" fill="black"/>
</svg>
