<svg width="212" height="41" viewBox="0 0 212 41" fill="none" xmlns="http://www.w3.org/2000/svg">
<g clip-path="url(#clip0_180_2407)">
<path d="M32.1844 25.8206C31.7486 24.6626 31.1884 23.6298 30.4725 22.6908C29.7254 21.7832 28.8539 20.9069 27.8579 20.2183C27.6089 20.0305 27.4221 19.7489 27.3599 19.4359C27.2976 19.0916 27.3599 18.8099 27.5777 18.5908C29.2586 16.5565 30.099 14.3031 30.099 11.8305C30.099 9.17023 29.2274 6.7916 27.391 4.66336C25.5545 2.56641 23.2201 1.15802 20.3876 0.500763C19.2048 0.219084 18.0532 0 16.9637 0H1.27617C0.902657 0 0.622522 0.125191 0.40464 0.375573C0.155631 0.594657 0 0.907634 0 1.22061V39.7794C0 40.155 0.124504 40.4366 0.40464 40.6244C0.653648 40.8435 0.96491 41 1.27617 41H19.6717C20.6677 41 21.726 40.8435 22.8777 40.5618C25.7724 39.9046 28.1069 38.5275 30.0056 36.3992C31.8731 34.3023 32.8069 31.8924 32.8069 29.1695C32.8069 28.1053 32.5579 26.9473 32.1844 25.8206ZM23.7804 30.9221C21.8817 33.3321 19.2671 34.6466 15.9366 34.8969C15.5319 34.9282 15.1895 34.9595 14.816 34.9595C12.4193 34.9595 10.2716 34.3336 8.31067 33.0817C6.34973 31.8298 5.04243 30.2023 4.35766 28.2618C4.20203 27.8237 4.23315 27.4168 4.51329 27.0412C4.73117 26.6344 5.10468 26.4153 5.54045 26.3527L8.80869 25.9145C9.46234 25.8206 9.96036 26.071 10.2716 26.6031C10.4895 27.1038 10.863 27.4794 11.4233 27.855C11.9524 28.2305 12.575 28.5122 13.2909 28.6687C14.0068 28.8252 14.7227 28.8878 15.4697 28.8565C17.1194 28.7 18.3644 28.1053 19.1426 27.0099C19.6406 26.4153 19.8273 25.8206 19.734 25.1321C19.6406 24.3809 19.2359 23.8489 18.5512 23.442C17.8353 23.0664 16.6213 22.6908 14.816 22.284C13.322 22.0023 12.2948 21.6893 11.6412 21.4389C9.33784 20.4374 7.7504 18.9977 6.84775 17.0885C5.97622 15.1794 5.97622 13.1763 6.84775 11.0168C7.59477 9.20153 8.9332 7.85573 10.9253 7.01069C12.9173 6.16565 15.0339 5.88397 17.3061 6.35344C18.5823 6.60382 19.8585 7.22977 21.1346 8.2313C22.3797 9.23282 23.2512 10.4534 23.6559 11.987C23.8115 12.4252 23.7492 12.8321 23.4691 13.2076C23.189 13.6145 22.8154 13.8023 22.3174 13.8023L18.8002 13.8649C18.3644 13.8962 17.9909 13.7084 17.6796 13.2702C17.2439 12.7695 16.6836 12.4565 16.03 12.3626C15.1895 12.1748 14.3803 12.2061 13.6955 12.4252C13.0107 12.6443 12.5438 12.9886 12.3571 13.4267C11.9213 14.4595 12.4504 15.2733 13.9445 15.8366C14.1935 15.9618 14.9094 16.1183 15.9677 16.4313C16.8392 16.6191 17.5863 16.8069 18.1777 16.9321C18.7691 17.0573 19.5161 17.3702 20.481 17.7458C21.4459 18.1214 22.2552 18.5908 22.8777 19.1229C23.5002 19.6237 24.0605 20.3435 24.6519 21.2511C25.181 22.1588 25.5234 23.2229 25.7102 24.4122C26.0526 26.7908 25.3989 28.9817 23.7804 30.9221Z" fill="white"/>
<path d="M53.2567 32.7063C51.7627 32.988 50.3931 32.8941 49.1792 32.3934C47.9653 31.8926 47.1249 31.2666 46.6269 30.5468C46.6269 31.1727 46.409 31.7048 45.9732 32.143C45.5374 32.5811 45.0083 32.8002 44.3858 32.8002H43.8566C43.6076 32.8002 43.3586 32.7063 43.203 32.5185C43.0162 32.3308 42.9229 32.1117 42.9229 31.83V7.1987C42.9229 7.04221 42.954 6.88572 43.0474 6.72923C43.1407 6.57274 43.2341 6.47885 43.3897 6.38496C43.5454 6.29106 43.701 6.25977 43.8566 6.25977H45.6931C45.9421 6.25977 46.1911 6.35366 46.3467 6.54144C46.5024 6.72923 46.6269 6.94832 46.6269 7.1987V17.1514C48.1209 16.1185 49.7395 15.5865 51.5137 15.5865C53.1945 15.5865 54.7197 16.0246 56.1203 16.9323C57.521 17.8399 58.5793 19.0605 59.2952 20.5628C60.0111 22.0964 60.2601 23.7239 60.0111 25.4453C59.7621 27.2292 59.0151 28.7941 57.77 30.1399C56.525 31.517 55.0309 32.3621 53.2567 32.7063ZM51.5137 19.3422C50.1752 19.3422 49.0236 19.8117 48.0587 20.7819C47.0938 21.7521 46.6269 22.9101 46.6269 24.2559C46.6269 25.6017 47.0938 26.7598 48.0587 27.73C49.0236 28.7002 50.1752 29.1697 51.5137 29.1697C52.8521 29.1697 54.0038 28.7002 54.9687 27.73C55.9336 26.7598 56.4005 25.6017 56.4005 24.2559C56.4005 23.5987 56.276 22.9727 55.9958 22.3781C55.7468 21.7521 55.3733 21.2514 54.9687 20.8132C54.564 20.375 54.0349 20.0308 53.4124 19.7804C52.821 19.4674 52.1673 19.3422 51.5137 19.3422Z" fill="white"/>
<path d="M77.4729 30.3272C75.7921 32.0172 73.7689 32.8623 71.4033 32.8623C69.0377 32.8623 67.0145 32.0172 65.3337 30.3272C63.6529 28.6371 62.8125 26.6027 62.8125 24.2241C62.8125 21.8455 63.6529 19.8111 65.3337 18.1211C67.0145 16.431 69.0377 15.5859 71.4033 15.5859C73.7689 15.5859 75.7921 16.431 77.4729 18.1211C79.1537 19.8111 79.9941 21.8455 79.9941 24.2241C79.9941 26.6027 79.1537 28.6371 77.4729 30.3272ZM71.4033 19.3417C70.5318 19.3417 69.6914 19.5607 68.9755 19.9989C68.2284 20.4371 67.637 21.0317 67.2013 21.7829C66.7655 22.534 66.5476 23.3478 66.5476 24.2241C66.5476 25.5699 67.0145 26.7279 67.9794 27.6982C68.9443 28.6684 70.096 29.1378 71.4344 29.1378C72.7729 29.1378 73.9245 28.6684 74.8894 27.6982C75.8544 26.7279 76.3212 25.5699 76.3212 24.2241C76.3212 23.5669 76.1967 22.9409 75.9166 22.3462C75.6676 21.7203 75.2941 21.2195 74.8894 20.7814C74.4848 20.3432 73.9557 19.9989 73.3331 19.7485C72.7106 19.4669 72.0881 19.3417 71.4033 19.3417Z" fill="white"/>
<path d="M97.3938 30.3272C95.713 32.0172 93.6898 32.8623 91.3242 32.8623C88.9586 32.8623 86.9354 32.0172 85.2546 30.3272C83.5738 28.6371 82.7334 26.6027 82.7334 24.2241C82.7334 21.8455 83.5738 19.8111 85.2546 18.1211C86.9354 16.431 88.9586 15.5859 91.3242 15.5859C93.6898 15.5859 95.713 16.431 97.3938 18.1211C99.0746 19.8111 99.915 21.8455 99.915 24.2241C99.8839 26.6027 99.0746 28.6371 97.3938 30.3272ZM91.3242 19.3417C90.4527 19.3417 89.6123 19.5607 88.8964 19.9989C88.1493 20.4371 87.5579 21.0317 87.1222 21.7829C86.6864 22.534 86.4685 23.3478 86.4685 24.2241C86.4685 25.5699 86.9354 26.7279 87.9003 27.6982C88.8652 28.6684 90.0169 29.1378 91.3553 29.1378C92.6938 29.1378 93.8454 28.6684 94.8103 27.6982C95.7752 26.7279 96.2421 25.5699 96.2421 24.2241C96.2421 23.5669 96.1176 22.9409 95.8375 22.3462C95.5885 21.7203 95.215 21.2195 94.8103 20.7814C94.4057 20.3432 93.8766 19.9989 93.254 19.7485C92.6315 19.4669 92.009 19.3417 91.3242 19.3417Z" fill="white"/>
<path d="M106.233 30.4216V32.0491C106.233 32.2682 106.171 32.4559 106.015 32.5811C105.86 32.7376 105.704 32.8002 105.517 32.8002H103.245C103.058 32.8002 102.872 32.7376 102.747 32.5811C102.623 32.4246 102.529 32.2682 102.529 32.0491V6.97961C102.529 6.79183 102.592 6.60404 102.747 6.47885C102.903 6.35366 103.058 6.25977 103.245 6.25977H105.517C105.704 6.25977 105.891 6.32236 106.015 6.47885C106.171 6.63534 106.233 6.79183 106.233 6.97961V23.2857C106.233 23.4735 106.296 23.5987 106.389 23.63C106.482 23.6613 106.607 23.5987 106.762 23.4735L112.894 16.3689C113.206 15.9934 113.61 15.8369 114.077 15.8369H117.563C117.75 15.8369 117.874 15.8995 117.937 15.9934C117.999 16.0872 117.937 16.2124 117.843 16.3689L111.525 23.6926C111.369 23.8491 111.307 24.0056 111.307 24.2246C111.307 24.4437 111.369 24.6315 111.525 24.7567L118.248 32.2682C118.404 32.4246 118.435 32.5498 118.404 32.6437C118.341 32.7376 118.248 32.8002 118.03 32.8002H114.482C114.015 32.8002 113.61 32.6124 113.268 32.2682L109.097 27.6048C108.941 27.4483 108.786 27.3544 108.599 27.3544C108.412 27.3544 108.257 27.4483 108.132 27.6048L106.794 29.1071C106.42 29.514 106.233 29.9521 106.233 30.4216Z" fill="white"/>
<path d="M125.718 33.0201C124.255 33.0201 122.917 32.6446 121.734 31.8621C120.551 31.0797 119.711 30.1095 119.306 28.8889C119.213 28.6385 119.244 28.3568 119.4 28.1377C119.555 27.8873 119.773 27.7621 120.022 27.6995L122.046 27.4492C122.45 27.3866 122.761 27.543 122.948 27.8873C123.104 28.169 123.322 28.4194 123.633 28.6698C123.944 28.8889 124.318 29.0766 124.753 29.1705C125.189 29.2644 125.625 29.327 126.092 29.2957C127.088 29.2018 127.835 28.8263 128.364 28.169C128.675 27.7934 128.8 27.4179 128.738 27.011C128.675 26.5415 128.458 26.1972 128.022 25.9782C127.586 25.7591 126.839 25.5087 125.718 25.2896C124.816 25.1018 124.162 24.914 123.789 24.7576C122.388 24.1629 121.392 23.2553 120.832 22.0972C120.271 20.9079 120.271 19.6873 120.832 18.3728C121.299 17.2774 122.108 16.4324 123.322 15.9003C124.536 15.3682 125.843 15.2118 127.244 15.4934C128.022 15.6499 128.831 16.0568 129.578 16.6514C130.356 17.2461 130.885 18.0285 131.134 18.9675C131.228 19.2179 131.197 19.4995 131.01 19.7186C130.823 19.969 130.605 20.0942 130.325 20.0942L128.177 20.1255C127.928 20.1568 127.679 20.0316 127.493 19.7499C127.244 19.4369 126.901 19.2492 126.497 19.1866C125.967 19.0614 125.501 19.0927 125.065 19.2179C124.629 19.3431 124.349 19.5621 124.224 19.8438C123.975 20.4698 124.287 20.9705 125.189 21.3148C125.345 21.3774 125.781 21.5026 126.434 21.6904C126.995 21.8156 127.43 21.9095 127.773 22.0034C128.115 22.0972 128.582 22.2537 129.205 22.5041C129.796 22.7545 130.294 23.0362 130.667 23.3492C131.041 23.6621 131.414 24.1003 131.757 24.6637C132.099 25.227 132.317 25.8843 132.411 26.6041C132.597 28.0438 132.193 29.3583 131.228 30.5789C130.045 32.0499 128.458 32.8637 126.434 33.0201C126.154 33.0201 125.936 33.0201 125.718 33.0201Z" fill="white"/>
<path d="M138.916 17.8708C139.134 17.5578 139.445 17.2448 139.819 16.9631C140.192 16.6502 140.69 16.3685 141.282 16.1181C141.873 15.8677 142.527 15.6799 143.211 15.6173C143.927 15.5547 144.705 15.586 145.546 15.7112C147.32 16.0555 148.814 16.8692 150.059 18.215C151.304 19.5608 152.051 21.1257 152.3 22.9097C152.549 24.6311 152.3 26.2586 151.584 27.7921C150.868 29.3257 149.81 30.5463 148.441 31.4227C147.04 32.3303 145.515 32.7685 143.803 32.7685C142.029 32.7685 140.41 32.2364 138.916 31.2036V40.0608C138.916 40.2173 138.885 40.3738 138.791 40.5303C138.698 40.6868 138.605 40.7807 138.449 40.8746C138.293 40.9685 138.138 40.9998 137.982 40.9998H136.146C135.897 40.9998 135.648 40.9059 135.492 40.7181C135.305 40.5303 135.212 40.3112 135.212 40.0608V16.4937C135.212 16.2433 135.305 15.9929 135.492 15.8051C135.679 15.6173 135.897 15.5234 136.146 15.5234H136.675C137.297 15.5234 137.827 15.7425 138.262 16.1807C138.698 16.7128 138.916 17.2448 138.916 17.8708ZM140.348 20.7189C139.383 21.6891 138.916 22.8471 138.916 24.1929C138.916 25.5387 139.383 26.6967 140.348 27.667C141.313 28.6372 142.464 29.1066 143.803 29.1066C144.674 29.1066 145.515 28.8876 146.231 28.4494C146.978 28.0112 147.569 27.4166 148.005 26.6654C148.441 25.9143 148.658 25.1005 148.658 24.2242C148.658 22.8784 148.192 21.7204 147.227 20.7502C146.262 19.7799 145.11 19.3105 143.772 19.3105C142.464 19.2792 141.313 19.7799 140.348 20.7189Z" fill="white"/>
<path d="M169.046 30.3272C167.365 32.0172 165.342 32.8623 162.976 32.8623C160.61 32.8623 158.587 32.0172 156.906 30.3272C155.226 28.6371 154.385 26.6027 154.385 24.2241C154.385 21.8455 155.226 19.8111 156.906 18.1211C158.587 16.431 160.61 15.5859 162.976 15.5859C165.342 15.5859 167.365 16.431 169.046 18.1211C170.726 19.8111 171.567 21.8455 171.567 24.2241C171.567 26.6027 170.726 28.6371 169.046 30.3272ZM163.007 19.3417C162.136 19.3417 161.295 19.5607 160.579 19.9989C159.832 20.4371 159.241 21.0317 158.805 21.7829C158.369 22.534 158.152 23.3478 158.152 24.2241C158.152 25.5699 158.618 26.7279 159.583 27.6982C160.548 28.6684 161.7 29.1378 163.038 29.1378C164.377 29.1378 165.528 28.6684 166.493 27.6982C167.458 26.7279 167.925 25.5699 167.925 24.2241C167.925 23.5669 167.801 22.9409 167.52 22.3462C167.271 21.7203 166.898 21.2195 166.493 20.7814C166.089 20.3432 165.56 19.9989 164.937 19.7485C164.283 19.4669 163.661 19.3417 163.007 19.3417Z" fill="white"/>
<path d="M178.228 17.4951C179.348 16.2431 180.594 15.6172 181.932 15.6172C182.399 15.6172 182.835 15.6798 183.302 15.7737C183.426 15.805 183.519 15.8363 183.644 15.9302C183.737 16.0241 183.831 16.118 183.924 16.2431C183.986 16.3683 184.017 16.4935 184.017 16.65V18.6844C184.017 18.966 183.893 19.2164 183.675 19.3729C183.457 19.5294 183.177 19.592 182.897 19.5294C182.337 19.3729 181.776 19.3729 181.216 19.4668C180.345 19.6546 179.629 20.1241 179.068 20.8439C178.508 21.5638 178.228 22.3775 178.228 23.2851V32.0172C178.228 32.2676 178.135 32.4554 177.979 32.6431C177.823 32.7996 177.605 32.8935 177.356 32.8935H175.395C175.146 32.8935 174.96 32.7996 174.773 32.6431C174.617 32.4867 174.524 32.2676 174.524 32.0172V16.5874C174.524 16.3996 174.586 16.2431 174.711 16.0867C174.835 15.9615 174.991 15.8989 175.209 15.8989H177.543C177.73 15.8989 177.886 15.9615 178.041 16.0867C178.166 16.2118 178.228 16.3683 178.228 16.5874V17.4951Z" fill="white"/>
<path d="M191.488 8.8576C191.768 8.70111 192.079 8.70111 192.359 8.8576C192.671 9.01409 192.795 9.26447 192.795 9.60875V14.7416C192.795 14.992 192.889 15.1797 193.044 15.3675C193.2 15.5553 193.418 15.6492 193.667 15.6492H196.499C196.748 15.6492 196.935 15.7431 197.122 15.8996C197.277 16.0561 197.371 16.2752 197.371 16.5255V18.466C197.371 18.7164 197.277 18.9355 197.122 19.1233C196.966 19.2797 196.748 19.3736 196.499 19.3736H193.667C193.418 19.3736 193.231 19.4675 193.044 19.624C192.889 19.7805 192.795 19.9996 192.795 20.25V26.6347C192.795 27.1981 192.951 27.6988 193.293 28.137C193.636 28.5752 194.071 28.8881 194.632 29.0133C195.036 29.1385 195.254 29.4202 195.254 29.8897V31.8614C195.254 32.1118 195.161 32.3622 194.974 32.5187C194.787 32.7065 194.569 32.7691 194.289 32.7065C192.795 32.4561 191.581 31.7675 190.585 30.6095C189.589 29.4515 189.091 28.1057 189.091 26.5721V20.2187C189.091 19.9683 188.998 19.7805 188.842 19.5927C188.687 19.4362 188.469 19.3423 188.22 19.3423H187.224C186.975 19.3423 186.788 19.2484 186.601 19.0607C186.445 18.8729 186.352 18.6851 186.352 18.4347V16.4942C186.352 16.2439 186.445 16.0561 186.601 15.8683C186.757 15.7118 186.975 15.6179 187.224 15.6179H188.22C188.469 15.6179 188.655 15.524 188.842 15.3362C188.998 15.1484 189.091 14.9607 189.091 14.7103V10.7355C189.091 10.3912 189.247 10.1408 189.527 9.98432L191.488 8.8576Z" fill="white"/>
<path d="M205.277 33.0201C203.814 33.0201 202.475 32.6446 201.292 31.8621C200.11 31.0797 199.269 30.1095 198.865 28.8889C198.771 28.6385 198.802 28.3568 198.958 28.1377C199.114 27.8873 199.331 27.7621 199.58 27.6995L201.604 27.4492C202.008 27.3866 202.32 27.543 202.506 27.8873C202.662 28.169 202.88 28.4194 203.191 28.6698C203.502 28.8889 203.876 29.0766 204.312 29.1705C204.747 29.2644 205.183 29.327 205.65 29.2957C206.646 29.2018 207.393 28.8263 207.922 28.169C208.233 27.7934 208.358 27.4179 208.296 27.011C208.233 26.5415 208.016 26.1972 207.58 25.9782C207.144 25.7591 206.397 25.5087 205.277 25.2896C204.374 25.1018 203.72 24.914 203.347 24.7576C201.946 24.1629 200.95 23.2553 200.39 22.0972C199.829 20.9079 199.829 19.6873 200.39 18.3728C200.857 17.2774 201.666 16.4324 202.88 15.9003C204.094 15.3682 205.401 15.2118 206.802 15.4934C207.58 15.6499 208.389 16.0568 209.136 16.6514C209.914 17.2461 210.443 18.0285 210.692 18.9675C210.786 19.2179 210.755 19.4995 210.568 19.7186C210.381 19.969 210.163 20.0942 209.883 20.0942L207.735 20.1255C207.486 20.1568 207.237 20.0316 207.051 19.7499C206.802 19.4369 206.459 19.2492 206.055 19.1866C205.526 19.0614 205.059 19.0927 204.623 19.2179C204.187 19.3431 203.907 19.5621 203.782 19.8438C203.533 20.4698 203.845 20.9705 204.747 21.3148C204.903 21.3774 205.339 21.5026 205.992 21.6904C206.553 21.8156 206.988 21.9095 207.331 22.0034C207.673 22.0972 208.14 22.2537 208.763 22.5041C209.354 22.7545 209.852 23.0362 210.226 23.3492C210.599 23.6621 210.973 24.1003 211.315 24.6637C211.657 25.227 211.875 25.8843 211.969 26.6041C212.155 28.0438 211.751 29.3583 210.786 30.5789C209.603 32.0499 208.016 32.8637 205.992 33.0201C205.743 33.0201 205.494 33.0201 205.277 33.0201Z" fill="white"/>
</g>
<defs>
<clipPath id="clip0_180_2407">
<rect width="212" height="41" fill="white"/>
</clipPath>
</defs>
</svg>
