<svg width="48" height="48" viewBox="0 0 48 48" fill="none" xmlns="http://www.w3.org/2000/svg">
<circle cx="24" cy="24" r="24" fill="#67D9A2"/>
<g clip-path="url(#clip0_170_2797)">
<path fill-rule="evenodd" clip-rule="evenodd" d="M16.781 36H16.78C16.177 36 15.683 35.525 15.657 34.921C15.528 31.801 15.165 22.971 15.165 22.971L13.449 26.077C13.263 26.416 12.856 26.563 12.496 26.424L12.495 26.423C12.191 26.305 12 26.016 12 25.703L12.029 25.493L13.688 19.637C13.851 19.063 14.375 18.667 14.972 18.667H33.028C33.625 18.667 34.149 19.063 34.312 19.637L35.971 25.493L36 25.703C36 26.016 35.809 26.305 35.505 26.423L35.504 26.424C35.144 26.563 34.737 26.416 34.551 26.077L32.835 22.971C32.835 22.971 32.472 31.801 32.343 34.921C32.317 35.525 31.823 36 31.22 36H31.219C30.628 36 30.144 35.541 30.099 34.953C29.997 33.656 29.725 30.553 29.643 29.325C29.609 28.815 29.236 28.515 28.831 28.515C28.468 28.515 28.06 28.815 28.027 29.325C27.944 30.553 27.672 33.656 27.571 34.953C27.525 35.541 27.041 36 26.451 36H26.449C25.847 36 25.352 35.525 25.327 34.921C25.197 31.801 24.683 22 24.683 22H23.335C23.335 22 22.803 31.801 22.673 34.921C22.648 35.525 22.153 36 21.551 36H21.549C20.959 36 20.475 35.541 20.429 34.953C20.328 33.656 20.056 30.553 19.973 29.325C19.94 28.815 19.532 28.515 19.169 28.515C18.764 28.515 18.391 28.815 18.357 29.325C18.275 30.553 18.003 33.656 17.901 34.953C17.856 35.541 17.372 36 16.781 36ZM19.165 12C20.821 12 22.165 13.344 22.165 15C22.165 16.656 20.821 18 19.165 18C17.51 18 16.165 16.656 16.165 15C16.165 13.344 17.51 12 19.165 12ZM28.835 12C27.179 12 25.835 13.344 25.835 15C25.835 16.656 27.179 18 28.835 18C30.49 18 31.835 16.656 31.835 15C31.835 13.344 30.49 12 28.835 12Z" fill="white"/>
</g>
<defs>
<clipPath id="clip0_170_2797">
<rect width="24" height="24" fill="white" transform="translate(12 12)"/>
</clipPath>
</defs>
</svg>
