<svg width="48" height="48" viewBox="0 0 48 48" fill="none" xmlns="http://www.w3.org/2000/svg">
<circle cx="24" cy="24" r="24" fill="#7B61FF"/>
<g clip-path="url(#clip0_212_2036)">
<path d="M22.448 33.2987C22.168 33.3221 21.888 33.3337 21.608 33.3337C20.243 33.3337 18.948 33.0071 17.793 32.4354L13.2547 33.0887L13.943 28.5271H13.9547C13.488 27.5004 13.208 26.3687 13.208 25.1671C13.208 22.9621 14.1063 20.9671 15.553 19.4971" stroke="white" stroke-width="1.5" stroke-linecap="round" stroke-linejoin="round"/>
<path d="M22.6702 23.7438C23.1856 23.7438 23.6035 23.3364 23.6035 22.8338C23.6035 22.3312 23.1856 21.9238 22.6702 21.9238C22.1547 21.9238 21.7368 22.3312 21.7368 22.8338C21.7368 23.3364 22.1547 23.7438 22.6702 23.7438Z" fill="white"/>
<path d="M26.4036 23.7438C26.919 23.7438 27.3369 23.3364 27.3369 22.8338C27.3369 22.3312 26.919 21.9238 26.4036 21.9238C25.8881 21.9238 25.4702 22.3312 25.4702 22.8338C25.4702 23.3364 25.8881 23.7438 26.4036 23.7438Z" fill="white"/>
<path d="M30.1257 23.7438C30.6412 23.7438 31.0591 23.3364 31.0591 22.8338C31.0591 22.3312 30.6412 21.9238 30.1257 21.9238C29.6103 21.9238 29.1924 22.3312 29.1924 22.8338C29.1924 23.3364 29.6103 23.7438 30.1257 23.7438Z" fill="white"/>
<path d="M34.0567 26.1927L34.7451 30.7544L30.2068 30.101C29.3901 30.5093 28.5034 30.7894 27.5584 30.9177C27.1851 30.976 26.7884 30.9994 26.3918 30.9994C21.7484 30.9994 18.0034 27.3477 18.0034 22.8327C18.0034 20.581 18.9251 18.5743 20.4417 17.0927C21.9467 15.5877 24.0584 14.666 26.4034 14.666C31.0467 14.666 34.7918 18.3177 34.7918 22.8327C34.7918 24.0343 34.5118 25.166 34.0451 26.1927H34.0567V26.1927Z" stroke="white" stroke-width="1.5" stroke-linecap="round" stroke-linejoin="round"/>
</g>
<defs>
<clipPath id="clip0_212_2036">
<rect width="26" height="26" fill="white" transform="translate(11 11)"/>
</clipPath>
</defs>
</svg>
