<svg width="151" height="150" viewBox="0 0 151 150" fill="none" xmlns="http://www.w3.org/2000/svg">
<g filter="url(#filter0_d_165_3829)">
<rect x="16.208" y="8.71387" width="103.792" height="103.792" rx="4" fill="white"/>
</g>
<circle cx="68.104" cy="60.6103" r="36.5195" fill="#F9F9FC"/>
<path d="M87.3247 76.9478H48.8831C48.1185 76.9478 47.3851 76.644 46.8444 76.1033C46.3038 75.5626 46 74.8293 46 74.0647V47.1556C46 46.3909 46.3038 45.6576 46.8444 45.1169C47.3851 44.5762 48.1185 44.2725 48.8831 44.2725H87.3247C88.0893 44.2725 88.8227 44.5762 89.3633 45.1169C89.904 45.6576 90.2078 46.3909 90.2078 47.1556V74.0647C90.2078 74.8293 89.904 75.5626 89.3633 76.1033C88.8227 76.644 88.0893 76.9478 87.3247 76.9478Z" fill="#6CC4F5"/>
<path d="M69.0648 70.2209H52.7272C52.4723 70.2209 52.2278 70.1197 52.0476 69.9394C51.8674 69.7592 51.7661 69.5148 51.7661 69.2599C51.7661 69.005 51.8674 68.7605 52.0476 68.5803C52.2278 68.4001 52.4723 68.2988 52.7272 68.2988H69.0648C69.3197 68.2988 69.5641 68.4001 69.7444 68.5803C69.9246 68.7605 70.0259 69.005 70.0259 69.2599C70.0259 69.5148 69.9246 69.7592 69.7444 69.9394C69.5641 70.1197 69.3197 70.2209 69.0648 70.2209Z" fill="#2A4B55"/>
<path d="M83.4803 70.2209H76.753C76.4981 70.2209 76.2537 70.1197 76.0735 69.9394C75.8932 69.7592 75.792 69.5148 75.792 69.2599C75.792 69.005 75.8932 68.7605 76.0735 68.5803C76.2537 68.4001 76.4981 68.2988 76.753 68.2988H83.4803C83.7352 68.2988 83.9796 68.4001 84.1599 68.5803C84.3401 68.7605 84.4413 69.005 84.4413 69.2599C84.4413 69.5148 84.3401 69.7592 84.1599 69.9394C83.9796 70.1197 83.7352 70.2209 83.4803 70.2209Z" fill="#2A4B55"/>
<path d="M77.8941 59.0656C77.7157 59.0656 77.5407 59.0159 77.3889 58.9221C77.2371 58.8282 77.1144 58.694 77.0346 58.5344C76.9547 58.3747 76.921 58.196 76.937 58.0183C76.953 57.8405 77.0182 57.6707 77.1253 57.5279C77.5052 57.0344 77.7112 56.4291 77.7112 55.8062C77.7112 55.1834 77.5052 54.5781 77.1253 54.0845C76.9724 53.8806 76.9067 53.6243 76.9428 53.372C76.9788 53.1197 77.1136 52.892 77.3175 52.7391C77.5214 52.5862 77.7777 52.5205 78.0301 52.5565C78.2824 52.5926 78.51 52.7274 78.663 52.9313C79.2945 53.757 79.6366 54.7677 79.6366 55.8072C79.6366 56.8467 79.2945 57.8574 78.663 58.6831C78.5733 58.8021 78.4571 58.8986 78.3237 58.965C78.1902 59.0314 78.0432 59.0658 77.8941 59.0656Z" fill="white"/>
<path d="M72.9089 57.727C73.9704 57.727 74.831 56.8664 74.831 55.8049C74.831 54.7434 73.9704 53.8828 72.9089 53.8828C71.8474 53.8828 70.9868 54.7434 70.9868 55.8049C70.9868 56.8664 71.8474 57.727 72.9089 57.727Z" fill="white"/>
<path d="M59.4544 56.7663H52.7272C52.4723 56.7663 52.2278 56.6651 52.0476 56.4849C51.8674 56.3046 51.7661 56.0602 51.7661 55.8053V51.0001C51.7661 50.7452 51.8674 50.5008 52.0476 50.3205C52.2278 50.1403 52.4723 50.0391 52.7272 50.0391H59.4544C59.7093 50.0391 59.9538 50.1403 60.134 50.3205C60.3142 50.5008 60.4155 50.7452 60.4155 51.0001V55.8053C60.4155 56.0602 60.3142 56.3046 60.134 56.4849C59.9538 56.6651 59.7093 56.7663 59.4544 56.7663Z" fill="#2A4B55"/>
<path d="M81.7418 61.9558C81.5633 61.9558 81.3884 61.9061 81.2366 61.8123C81.0847 61.7184 80.962 61.5842 80.8822 61.4246C80.8024 61.2649 80.7686 61.0862 80.7847 60.9085C80.8007 60.7307 80.8659 60.5609 80.973 60.4181C81.9753 59.0915 82.5175 57.4741 82.5175 55.8114C82.5175 54.1487 81.9753 52.5313 80.973 51.2047C80.82 51.0008 80.7544 50.7444 80.7904 50.4921C80.8265 50.2398 80.9613 50.0121 81.1652 49.8592C81.3691 49.7063 81.6254 49.6406 81.8777 49.6767C82.13 49.7127 82.3577 49.8475 82.5106 50.0514C83.7628 51.711 84.4401 53.7334 84.4401 55.8124C84.4401 57.8913 83.7628 59.9137 82.5106 61.5733C82.4209 61.6923 82.3048 61.7888 82.1713 61.8552C82.0379 61.9216 81.8908 61.956 81.7418 61.9558Z" fill="white"/>
<defs>
<filter id="filter0_d_165_3829" x="0.831384" y="0.0645161" width="149.922" height="149.922" filterUnits="userSpaceOnUse" color-interpolation-filters="sRGB">
<feFlood flood-opacity="0" result="BackgroundImageFix"/>
<feColorMatrix in="SourceAlpha" type="matrix" values="0 0 0 0 0 0 0 0 0 0 0 0 0 0 0 0 0 0 127 0" result="hardAlpha"/>
<feOffset dx="7.68831" dy="14.4156"/>
<feGaussianBlur stdDeviation="11.5325"/>
<feColorMatrix type="matrix" values="0 0 0 0 0.101961 0 0 0 0 0.133333 0 0 0 0 0.219608 0 0 0 0.16 0"/>
<feBlend mode="normal" in2="BackgroundImageFix" result="effect1_dropShadow_165_3829"/>
<feBlend mode="normal" in="SourceGraphic" in2="effect1_dropShadow_165_3829" result="shape"/>
</filter>
</defs>
</svg>
