<svg width="151" height="151" viewBox="0 0 151 151" fill="none" xmlns="http://www.w3.org/2000/svg">
<g filter="url(#filter0_d_165_3815)">
<rect x="16" y="9" width="103.792" height="103.792" rx="4" fill="white"/>
</g>
<circle cx="66.935" cy="60.8964" r="36.5195" fill="#F9F9FC"/>
<path fill-rule="evenodd" clip-rule="evenodd" d="M70.9265 44.0436C67.1498 44.5222 63.6923 46.726 61.4469 50.0859C60.9561 50.8202 60.2425 52.2925 59.9627 53.1478C59.4759 54.6358 59.2756 56.2221 59.4001 57.6017C59.441 58.0554 59.486 58.4451 59.4999 58.4677C59.5497 58.5484 59.2605 59.8088 59.0406 60.47C58.7355 61.3869 58.3274 62.2162 57.7682 63.0553C57.3465 63.6882 56.9299 64.1314 53.6855 67.3987C50.4842 70.6227 50.0672 71.0656 50.0259 71.2863C49.9317 71.7889 50.0154 71.9043 51.6642 73.5469C53.3502 75.2265 53.4453 75.2926 53.9831 75.1572C54.2116 75.0997 54.6913 74.6412 57.7798 71.5281C60.0861 69.2035 61.4979 67.8305 61.8409 67.5787C62.8592 66.8311 64.0379 66.2433 65.1838 65.9118C66.1094 65.644 66.4678 65.5988 67.0674 65.6741C68.953 65.9109 71.0326 65.5856 72.9728 64.7506C76.9325 63.0465 79.9863 59.3491 80.8735 55.1853C81.0736 54.2461 81.1225 52.3906 80.9728 51.4176C80.8516 50.63 80.4767 49.4194 80.1553 48.778C78.9424 46.3574 76.7937 44.7338 74.0611 44.173C73.2951 44.0159 71.6736 43.9489 70.9265 44.0436ZM73.5992 46.059L73.9481 46.1376L72.7891 47.2997L71.63 48.4618L70.5765 47.4082C69.9971 46.8287 69.5443 46.3346 69.5704 46.3103C69.6313 46.2533 70.4681 46.0703 71.0124 45.9948C71.5608 45.9188 73.1524 45.9583 73.5992 46.059ZM76.3041 47.178C76.7339 47.4611 77.6186 48.3465 77.9109 48.7862L78.1482 49.143L76.6887 50.6046L75.2292 52.0663L74.1261 50.963L73.023 49.8597L74.4658 48.4138C75.2594 47.6185 75.9258 46.9678 75.9467 46.9678C75.9677 46.9678 76.1285 47.0623 76.3041 47.178ZM69.3418 50.7514L68.4177 51.6769L66.8772 50.1338L65.3367 48.5907L65.5313 48.4296C65.8474 48.168 66.8656 47.4737 67.2168 47.2803L67.5421 47.1011L68.904 48.4635L70.266 49.826L69.3418 50.7514ZM65.5482 51.5319L67.0559 53.0429L66.1307 53.9679L65.2056 54.8927L63.8442 53.5282L62.4828 52.1636L62.6717 51.823C63.0537 51.1343 63.8567 50.0209 63.9715 50.0209C64.0094 50.0209 64.7189 50.7008 65.5482 51.5319ZM79.0577 51.7563C79.1777 52.6033 79.1054 54.2418 78.9142 55.0081L78.7638 55.6106L77.6943 54.5372L76.6247 53.4638L77.7584 52.327C78.382 51.7018 78.9113 51.1902 78.9348 51.1902C78.9583 51.1902 79.0136 51.4449 79.0577 51.7563ZM72.7808 52.344L73.8666 53.4329L72.9414 54.3577L72.0163 55.2827L70.9151 54.1784L69.8139 53.0742L70.7204 52.1647C71.219 51.6645 71.6422 51.2552 71.6609 51.2552C71.6796 51.2552 72.1835 51.7452 72.7808 52.344ZM62.807 55.2178L63.8433 56.2572L62.6765 57.4279L61.5096 58.5986L61.4269 58.1911C61.2981 57.5571 61.3036 55.9448 61.4369 55.2502C61.5833 54.4873 61.6659 54.1784 61.7237 54.1784C61.7495 54.1784 62.2369 54.6461 62.807 55.2178ZM69.7312 57.5721L68.8074 58.4973L67.7045 57.3942L66.6016 56.2912L67.5254 55.3644L68.4491 54.4376L69.5521 55.5422L70.6551 56.6468L69.7312 57.5721ZM77.953 57.5792C77.953 57.6807 77.3241 58.6805 76.9111 59.2356L76.5075 59.778L74.9601 58.2293L73.4127 56.6807L74.3362 55.7542L75.2597 54.8277L76.6063 56.1752C77.347 56.9163 77.953 57.5482 77.953 57.5792ZM66.3589 58.775L67.4447 59.8637L66.0009 61.3085C65.2069 62.1031 64.532 62.7532 64.5011 62.7532C64.2526 62.7532 62.9455 61.5382 62.5188 60.9106L62.3039 60.5945L63.7549 59.1404C64.5529 58.3406 65.221 57.6863 65.2396 57.6863C65.258 57.6863 65.7618 58.1762 66.3589 58.775ZM73.6075 59.6058C74.9059 60.9092 75.1165 61.1471 75.0309 61.2136C74.1149 61.9249 73.6677 62.2304 73.1681 62.4856L72.9159 62.6144L71.5595 61.2548L70.203 59.8952L71.1096 58.9856C71.6081 58.4853 72.0313 58.076 72.0499 58.076C72.0685 58.076 72.7694 58.7644 73.6075 59.6058ZM70.8976 63.4113C70.7741 63.5284 69.4813 63.7433 68.7097 63.7749C67.9492 63.806 66.9121 63.728 66.6263 63.6182C66.551 63.5893 66.8281 63.2744 67.6811 62.4191L68.838 61.2592L69.8915 62.3128C70.471 62.8922 70.9237 63.3866 70.8976 63.4113ZM61.0157 62.1406C61.4002 62.7118 62.2364 63.5595 62.891 64.0418L63.4292 64.4383L62.8262 64.7212C62.1355 65.0453 61.3828 65.4917 60.7413 65.9578L60.2973 66.2805L59.5887 65.5709L58.8801 64.8613L59.1647 64.4697C59.6074 63.8604 60.1568 62.9063 60.4235 62.2837C60.5571 61.9719 60.6809 61.7171 60.6988 61.7174C60.7166 61.7176 60.8593 61.9082 61.0157 62.1406ZM76.8179 66.1776C75.6456 66.3399 74.2747 67.0933 73.4803 68.0116C72.6093 69.0185 72.0841 70.3707 72.1287 71.4916L72.1475 71.9636L72.5692 71.7033C74.3733 70.5891 76.6994 70.053 78.7314 70.2829C80.3022 70.4606 81.4934 70.8633 82.942 71.7059L83.2283 71.8725L83.1877 71.2541C83.0278 68.8162 81.1247 66.6934 78.677 66.2227C78.2359 66.1378 77.2733 66.1145 76.8179 66.1776ZM76.732 72.2423C75.412 72.4138 73.9513 73.0167 72.9664 73.7962L72.6328 74.0604L72.7401 74.2695C73.1332 75.0357 73.9368 75.9013 74.6945 76.3749C75.9615 77.1668 77.5777 77.4288 78.9909 77.0714C80.4737 76.6964 81.8816 75.5881 82.5496 74.2701C82.6258 74.1196 82.6882 73.9701 82.6882 73.9377C82.6882 73.85 81.8564 73.3075 81.2754 73.0163C79.9133 72.3336 78.2326 72.0472 76.732 72.2423Z" fill="#67D9A2"/>
<defs>
<filter id="filter0_d_165_3815" x="0.623376" y="0.350649" width="149.922" height="149.922" filterUnits="userSpaceOnUse" color-interpolation-filters="sRGB">
<feFlood flood-opacity="0" result="BackgroundImageFix"/>
<feColorMatrix in="SourceAlpha" type="matrix" values="0 0 0 0 0 0 0 0 0 0 0 0 0 0 0 0 0 0 127 0" result="hardAlpha"/>
<feOffset dx="7.68831" dy="14.4156"/>
<feGaussianBlur stdDeviation="11.5325"/>
<feColorMatrix type="matrix" values="0 0 0 0 0.101961 0 0 0 0 0.133333 0 0 0 0 0.219608 0 0 0 0.16 0"/>
<feBlend mode="normal" in2="BackgroundImageFix" result="effect1_dropShadow_165_3815"/>
<feBlend mode="normal" in="SourceGraphic" in2="effect1_dropShadow_165_3815" result="shape"/>
</filter>
</defs>
</svg>
