<svg width="48" height="48" viewBox="0 0 48 48" fill="none" xmlns="http://www.w3.org/2000/svg">
<circle cx="24" cy="24" r="24" fill="#3781DD"/>
<path d="M33.7498 29.8747C33.2168 31.0556 32.9622 31.5821 32.2754 32.6264C31.3188 34.0835 29.969 35.8981 28.2963 35.9132C26.81 35.9273 26.4286 34.9469 24.4115 34.9577C22.3954 34.9686 21.974 35.9306 20.4876 35.9165C18.815 35.9013 17.5377 34.2633 16.579 32.8052C13.9031 28.7297 13.6236 23.9478 15.2746 21.4063C16.4479 19.5993 18.2993 18.5431 20.0402 18.5431C21.8125 18.5431 22.9262 19.5148 24.392 19.5148C25.8133 19.5148 26.68 18.542 28.7285 18.542C30.2777 18.542 31.9179 19.3848 33.0879 20.8419C29.2572 22.9414 29.879 28.4112 33.7498 29.8747Z" stroke="white" stroke-width="2" stroke-miterlimit="10" stroke-linecap="round" stroke-linejoin="round"/>
<path d="M27.358 14.7377C28.0621 13.8342 28.5962 12.5591 28.4023 11.2559C27.2518 11.3349 25.9085 12.0662 25.1231 13.0195C24.4102 13.8851 23.822 15.1678 24.0506 16.4158C25.3051 16.4548 26.604 15.7051 27.358 14.7377Z" fill="white"/>
</svg>
