<svg width="65" height="65" viewBox="0 0 65 65" fill="none" xmlns="http://www.w3.org/2000/svg">
<rect y="0.0410156" width="64.9" height="64.9" rx="32.45" fill="white"/>
<path fill-rule="evenodd" clip-rule="evenodd" d="M41.3727 22.0511C38.7867 19.4652 35.3485 18.041 31.6914 18.041C28.0343 18.041 24.5961 19.4652 22.0101 22.0511C19.4242 24.6371 18 28.0753 18 31.7324C18 35.3895 19.4242 38.8277 22.0101 41.4137C24.5961 43.9996 28.0343 45.4238 31.6914 45.4238C35.3485 45.4238 38.7867 43.9996 41.3727 41.4137C43.9586 38.8277 45.3828 35.3895 45.3828 31.7324C45.3828 28.0753 43.9586 24.6371 41.3727 22.0511ZM42.7569 26.8543H40.3996C40.0567 25.6751 38.9786 24.8065 37.6965 24.7797C36.959 22.864 35.9381 21.2587 34.677 20.0156C36.7633 20.5434 38.6767 21.6246 40.2381 23.186C41.3134 24.2613 42.1609 25.5036 42.7569 26.8543ZM43.3317 35.0059C43.626 33.9536 43.7783 32.8545 43.7783 31.732C43.7783 30.6094 43.626 29.5103 43.3317 28.458H40.3997C40.1704 29.2464 39.6131 29.8966 38.8851 30.2487C38.9988 31.8479 38.9262 33.4588 38.6771 35.0059H43.3317ZM22.1989 35.0059H20.0511C19.7568 33.9536 19.6044 32.8545 19.6044 31.732C19.6044 30.6094 19.7568 29.5103 20.0511 28.458H24.7074C24.496 29.7694 24.4106 31.1279 24.4589 32.4847C23.3423 32.8908 22.4836 33.8371 22.1989 35.0059ZM36.3619 27.6567C36.3619 28.3591 36.9334 28.9306 37.6358 28.9306C38.3383 28.9306 38.9098 28.3592 38.9098 27.6567C38.9098 26.9543 38.3383 26.3828 37.6358 26.3828C36.9334 26.3828 36.3619 26.9543 36.3619 27.6567ZM34.8721 26.854H32.4936V20.2637C34.353 21.6016 35.4736 23.5351 36.1376 25.1996C35.5322 25.5701 35.0744 26.1582 34.8721 26.854ZM30.8891 26.8535V20.2656C29.3995 21.3433 28.1846 22.9484 27.3354 24.978C27.0856 25.5749 26.8708 26.203 26.6922 26.8535H30.8891ZM30.8892 28.458V35.0059H29.1619C28.8089 33.5565 27.5727 32.4493 26.0576 32.29C26.0206 30.9937 26.1153 29.6996 26.3334 28.458H30.8892ZM27.6596 35.8542C27.6596 34.7629 26.7717 33.875 25.6804 33.875C24.5891 33.875 23.7012 34.7629 23.7012 35.8542C23.7012 36.9455 24.5891 37.8334 25.6804 37.8334C26.7717 37.8334 27.6596 36.9455 27.6596 35.8542ZM29.183 36.6104H30.8892V43.2082C29.4722 42.2033 28.3439 40.7695 27.5209 38.9272C28.3565 38.4249 28.9712 37.5918 29.183 36.6104ZM32.4937 36.6104V43.1994C34.0578 42.0692 35.3147 40.3614 36.1683 38.1882C36.3678 37.6803 36.542 37.1527 36.6912 36.6104H32.4937ZM32.4937 35.0059V28.458H34.8721C35.1896 29.5503 36.138 30.3761 37.2951 30.5133C37.3911 32.0296 37.3064 33.5524 37.051 35.0059H32.4937ZM28.7132 20.0137C26.624 20.5407 24.7078 21.6227 23.1446 23.186C22.0693 24.2613 21.2217 25.5037 20.6257 26.8543H25.0348C25.2512 25.9854 25.5252 25.1483 25.8553 24.3595C26.5785 22.6307 27.5458 21.1657 28.7132 20.0137ZM20.6258 36.6104H22.1778C22.5262 38.2241 23.9639 39.4374 25.6804 39.4374C25.7835 39.4374 25.8854 39.432 25.9863 39.4234C26.6791 41.0235 27.5774 42.3656 28.6726 43.4403C26.5992 42.9096 24.6977 41.8317 23.1446 40.2786C22.0693 39.2034 21.2218 37.961 20.6258 36.6104ZM34.6713 43.4506C36.7599 42.9234 38.6754 41.8415 40.2382 40.2787C41.3135 39.2034 42.161 37.9611 42.757 36.6104H38.3497C38.1633 37.3578 37.9337 38.0824 37.6617 38.7749C36.9253 40.6495 35.9122 42.2263 34.6713 43.4506Z" fill="#3671D5"/>
</svg>
