<svg width="74" height="68" viewBox="0 0 74 68" fill="none" xmlns="http://www.w3.org/2000/svg">
<path d="M7.77273 9.27273C7.70455 8.69697 7.42803 8.25 6.94318 7.93182C6.45833 7.61364 5.86364 7.45455 5.15909 7.45455C4.64394 7.45455 4.19318 7.53788 3.80682 7.70455C3.42424 7.87121 3.125 8.10038 2.90909 8.39205C2.69697 8.68371 2.59091 9.01515 2.59091 9.38636C2.59091 9.69697 2.66477 9.96401 2.8125 10.1875C2.96402 10.4072 3.1572 10.5909 3.39205 10.7386C3.62689 10.8826 3.87311 11.0019 4.13068 11.0966C4.38826 11.1875 4.625 11.2614 4.84091 11.3182L6.02273 11.6364C6.32576 11.7159 6.66288 11.8258 7.03409 11.9659C7.40909 12.1061 7.76705 12.2973 8.10795 12.5398C8.45265 12.7784 8.73674 13.0852 8.96023 13.4602C9.18371 13.8352 9.29545 14.2955 9.29545 14.8409C9.29545 15.4697 9.13068 16.0379 8.80114 16.5455C8.47538 17.053 7.99811 17.4564 7.36932 17.7557C6.74432 18.0549 5.98485 18.2045 5.09091 18.2045C4.25758 18.2045 3.53598 18.0701 2.92614 17.8011C2.32008 17.5322 1.8428 17.1572 1.49432 16.6761C1.14962 16.1951 0.954545 15.6364 0.909091 15H2.36364C2.40152 15.4394 2.54924 15.803 2.80682 16.0909C3.06818 16.375 3.39773 16.5871 3.79545 16.7273C4.19697 16.8636 4.62879 16.9318 5.09091 16.9318C5.62879 16.9318 6.11174 16.8447 6.53977 16.6705C6.9678 16.4924 7.30682 16.2462 7.55682 15.9318C7.80682 15.6136 7.93182 15.2424 7.93182 14.8182C7.93182 14.4318 7.82386 14.1174 7.60795 13.875C7.39205 13.6326 7.10795 13.4356 6.75568 13.2841C6.40341 13.1326 6.02273 13 5.61364 12.8864L4.18182 12.4773C3.27273 12.2159 2.55303 11.8428 2.02273 11.358C1.49242 10.8731 1.22727 10.2386 1.22727 9.45455C1.22727 8.80303 1.40341 8.23485 1.75568 7.75C2.11174 7.26136 2.58902 6.88258 3.1875 6.61364C3.78977 6.34091 4.46212 6.20455 5.20455 6.20455C5.95455 6.20455 6.62121 6.33901 7.20455 6.60795C7.78788 6.87311 8.25 7.23674 8.59091 7.69886C8.93561 8.16098 9.11742 8.68561 9.13636 9.27273H7.77273ZM13.9986 18.2045C13.4455 18.2045 12.9437 18.1004 12.4929 17.892C12.0421 17.6799 11.6842 17.375 11.419 16.9773C11.1539 16.5758 11.0213 16.0909 11.0213 15.5227C11.0213 15.0227 11.1198 14.6174 11.3168 14.3068C11.5137 13.9924 11.777 13.7462 12.1065 13.5682C12.4361 13.3902 12.7997 13.2576 13.1974 13.1705C13.599 13.0795 14.0024 13.0076 14.4077 12.9545C14.938 12.8864 15.3679 12.8352 15.6974 12.8011C16.0308 12.7633 16.2732 12.7008 16.4247 12.6136C16.58 12.5265 16.6577 12.375 16.6577 12.1591V12.1136C16.6577 11.553 16.5043 11.1174 16.1974 10.8068C15.8944 10.4962 15.4342 10.3409 14.8168 10.3409C14.1766 10.3409 13.6747 10.4811 13.3111 10.7614C12.9474 11.0417 12.6918 11.3409 12.544 11.6591L11.2713 11.2045C11.4986 10.6742 11.8016 10.2614 12.1804 9.96591C12.563 9.66667 12.9796 9.45833 13.4304 9.34091C13.8849 9.2197 14.3319 9.15909 14.7713 9.15909C15.0516 9.15909 15.3736 9.19318 15.7372 9.26136C16.1046 9.32576 16.4588 9.46023 16.7997 9.66477C17.1444 9.86932 17.4304 10.178 17.6577 10.5909C17.8849 11.0038 17.9986 11.5568 17.9986 12.25V18H16.6577V16.8182H16.5895C16.4986 17.0076 16.3471 17.2102 16.1349 17.4261C15.9228 17.642 15.6406 17.8258 15.2884 17.9773C14.9361 18.1288 14.5062 18.2045 13.9986 18.2045ZM14.2031 17C14.7334 17 15.1804 16.8958 15.544 16.6875C15.9115 16.4792 16.188 16.2102 16.3736 15.8807C16.563 15.5511 16.6577 15.2045 16.6577 14.8409V13.6136C16.6009 13.6818 16.4759 13.7443 16.2827 13.8011C16.0933 13.8542 15.8736 13.9015 15.6236 13.9432C15.3774 13.9811 15.1368 14.0152 14.902 14.0455C14.6709 14.072 14.4834 14.0947 14.3395 14.1136C13.991 14.1591 13.6652 14.233 13.3622 14.3352C13.063 14.4337 12.8205 14.5833 12.6349 14.7841C12.4531 14.9811 12.3622 15.25 12.3622 15.5909C12.3622 16.0568 12.5346 16.4091 12.8793 16.6477C13.2277 16.8826 13.669 17 14.2031 17ZM27.2699 9.27273L24.0426 18H22.679L19.4517 9.27273H20.9062L23.3153 16.2273H23.4062L25.8153 9.27273H27.2699ZM32.3864 18.1818C31.5455 18.1818 30.8201 17.9962 30.2102 17.625C29.6042 17.25 29.1364 16.7273 28.8068 16.0568C28.4811 15.3826 28.3182 14.5985 28.3182 13.7045C28.3182 12.8106 28.4811 12.0227 28.8068 11.3409C29.1364 10.6553 29.5947 10.1212 30.1818 9.73864C30.7727 9.35227 31.4621 9.15909 32.25 9.15909C32.7045 9.15909 33.1534 9.23485 33.5966 9.38636C34.0398 9.53788 34.4432 9.78409 34.8068 10.125C35.1705 10.4621 35.4602 10.9091 35.6761 11.4659C35.892 12.0227 36 12.7083 36 13.5227V14.0909H29.2727V12.9318H34.6364C34.6364 12.4394 34.5379 12 34.3409 11.6136C34.1477 11.2273 33.8712 10.9223 33.5114 10.6989C33.1553 10.4754 32.7348 10.3636 32.25 10.3636C31.7159 10.3636 31.2538 10.4962 30.8636 10.7614C30.4773 11.0227 30.1799 11.3636 29.9716 11.7841C29.7633 12.2045 29.6591 12.6553 29.6591 13.1364V13.9091C29.6591 14.5682 29.7727 15.1269 30 15.5852C30.2311 16.0398 30.5511 16.3864 30.9602 16.625C31.3693 16.8598 31.8447 16.9773 32.3864 16.9773C32.7386 16.9773 33.0568 16.928 33.3409 16.8295C33.6288 16.7273 33.8769 16.5758 34.0852 16.375C34.2936 16.1705 34.4545 15.9167 34.5682 15.6136L35.8636 15.9773C35.7273 16.4167 35.4981 16.803 35.1761 17.1364C34.8542 17.4659 34.4564 17.7235 33.983 17.9091C33.5095 18.0909 32.9773 18.1818 32.3864 18.1818ZM42.517 18V16.9773L46.358 12.7727C46.8087 12.2803 47.1799 11.8523 47.4716 11.4886C47.7633 11.1212 47.9792 10.7765 48.1193 10.4545C48.2633 10.1288 48.3352 9.78788 48.3352 9.43182C48.3352 9.02273 48.2367 8.66856 48.0398 8.36932C47.8466 8.07008 47.5814 7.83901 47.2443 7.67614C46.9072 7.51326 46.5284 7.43182 46.108 7.43182C45.661 7.43182 45.2708 7.52462 44.9375 7.71023C44.608 7.89205 44.3523 8.14773 44.1705 8.47727C43.9924 8.80682 43.9034 9.19318 43.9034 9.63636H42.5625C42.5625 8.95455 42.7197 8.35606 43.0341 7.84091C43.3485 7.32576 43.7765 6.92424 44.3182 6.63636C44.8636 6.34848 45.4754 6.20455 46.1534 6.20455C46.8352 6.20455 47.4394 6.34848 47.9659 6.63636C48.4924 6.92424 48.9053 7.3125 49.2045 7.80114C49.5038 8.28977 49.6534 8.83333 49.6534 9.43182C49.6534 9.85985 49.5758 10.2784 49.4205 10.6875C49.2689 11.0928 49.0038 11.5455 48.625 12.0455C48.25 12.5417 47.7292 13.1477 47.0625 13.8636L44.4489 16.6591V16.75H49.858V18H42.517ZM56 18.1591C55.1439 18.1591 54.4148 17.9261 53.8125 17.4602C53.2102 16.9905 52.75 16.3106 52.4318 15.4205C52.1136 14.5265 51.9545 13.447 51.9545 12.1818C51.9545 10.9242 52.1136 9.85038 52.4318 8.96023C52.7538 8.06629 53.2159 7.38447 53.8182 6.91477C54.4242 6.44129 55.1515 6.20455 56 6.20455C56.8485 6.20455 57.5739 6.44129 58.1761 6.91477C58.7822 7.38447 59.2443 8.06629 59.5625 8.96023C59.8845 9.85038 60.0455 10.9242 60.0455 12.1818C60.0455 13.447 59.8864 14.5265 59.5682 15.4205C59.25 16.3106 58.7898 16.9905 58.1875 17.4602C57.5852 17.9261 56.8561 18.1591 56 18.1591ZM56 16.9091C56.8485 16.9091 57.5076 16.5 57.9773 15.6818C58.447 14.8636 58.6818 13.697 58.6818 12.1818C58.6818 11.1742 58.5739 10.3163 58.358 9.60795C58.1458 8.89962 57.839 8.35985 57.4375 7.98864C57.0398 7.61742 56.5606 7.43182 56 7.43182C55.1591 7.43182 54.5019 7.84659 54.0284 8.67614C53.5549 9.50189 53.3182 10.6705 53.3182 12.1818C53.3182 13.1894 53.4242 14.0455 53.6364 14.75C53.8485 15.4545 54.1534 15.9905 54.5511 16.358C54.9527 16.7254 55.4356 16.9091 56 16.9091ZM68.1364 15.8182V15.2045C68.1364 14.7803 68.2235 14.392 68.3977 14.0398C68.5758 13.6837 68.8333 13.3996 69.1705 13.1875C69.5114 12.9716 69.9242 12.8636 70.4091 12.8636C70.9015 12.8636 71.3144 12.9716 71.6477 13.1875C71.9811 13.3996 72.233 13.6837 72.4034 14.0398C72.5739 14.392 72.6591 14.7803 72.6591 15.2045V15.8182C72.6591 16.2424 72.572 16.6326 72.3977 16.9886C72.2273 17.3409 71.9735 17.625 71.6364 17.8409C71.303 18.053 70.8939 18.1591 70.4091 18.1591C69.9167 18.1591 69.5019 18.053 69.1648 17.8409C68.8277 17.625 68.572 17.3409 68.3977 16.9886C68.2235 16.6326 68.1364 16.2424 68.1364 15.8182ZM69.2955 15.2045V15.8182C69.2955 16.1705 69.3788 16.4867 69.5455 16.767C69.7121 17.0436 70 17.1818 70.4091 17.1818C70.8068 17.1818 71.0871 17.0436 71.25 16.767C71.4167 16.4867 71.5 16.1705 71.5 15.8182V15.2045C71.5 14.8523 71.4205 14.5379 71.2614 14.2614C71.1023 13.9811 70.8182 13.8409 70.4091 13.8409C70.0114 13.8409 69.7254 13.9811 69.5511 14.2614C69.3807 14.5379 69.2955 14.8523 69.2955 15.2045ZM62.3409 9.15909V8.54545C62.3409 8.12121 62.428 7.73295 62.6023 7.38068C62.7803 7.02462 63.0379 6.74053 63.375 6.52841C63.7159 6.3125 64.1288 6.20455 64.6136 6.20455C65.1061 6.20455 65.5189 6.3125 65.8523 6.52841C66.1856 6.74053 66.4375 7.02462 66.608 7.38068C66.7784 7.73295 66.8636 8.12121 66.8636 8.54545V9.15909C66.8636 9.58333 66.7765 9.97348 66.6023 10.3295C66.4318 10.6818 66.178 10.9659 65.8409 11.1818C65.5076 11.3939 65.0985 11.5 64.6136 11.5C64.1212 11.5 63.7064 11.3939 63.3693 11.1818C63.0322 10.9659 62.7765 10.6818 62.6023 10.3295C62.428 9.97348 62.3409 9.58333 62.3409 9.15909ZM63.5 8.54545V9.15909C63.5 9.51136 63.5833 9.82765 63.75 10.108C63.9167 10.3845 64.2045 10.5227 64.6136 10.5227C65.0114 10.5227 65.2917 10.3845 65.4545 10.108C65.6212 9.82765 65.7045 9.51136 65.7045 9.15909V8.54545C65.7045 8.19318 65.625 7.87879 65.4659 7.60227C65.3068 7.32197 65.0227 7.18182 64.6136 7.18182C64.2159 7.18182 63.9299 7.32197 63.7557 7.60227C63.5852 7.87879 63.5 8.19318 63.5 8.54545ZM62.7727 18L70.7727 6.36364H72.0682L64.0682 18H62.7727Z" fill="black"/>
<path d="M25.9744 33.7751C25.8502 33.237 25.3133 32.9014 24.7751 33.0256C24.237 33.1498 23.9014 33.6867 24.0256 34.2249L25.9744 33.7751ZM63.148 61.2617C63.5686 60.9038 63.6195 60.2727 63.2617 59.852L57.4299 52.9971C57.072 52.5764 56.4409 52.5255 56.0202 52.8834C55.5996 53.2413 55.5487 53.8724 55.9065 54.293L61.0904 60.3863L54.9971 65.5701C54.5764 65.928 54.5255 66.5591 54.8834 66.9798C55.2413 67.4004 55.8724 67.4513 56.293 67.0935L63.148 61.2617ZM24.0256 34.2249C24.5447 36.4741 26.2243 42.6668 31.7682 48.6191C37.3299 54.5903 46.696 60.2287 62.4196 61.4968L62.5804 59.5032C47.304 58.2713 38.4201 52.8264 33.2318 47.2559C28.0257 41.6665 26.4553 35.8592 25.9744 33.7751L24.0256 34.2249Z" fill="#9C88FF"/>
</svg>
