<svg width="388" height="435" viewBox="0 0 388 435" fill="none" xmlns="http://www.w3.org/2000/svg">
<circle cx="45" cy="124" r="45" fill="url(#paint0_linear_180_2776)"/>
<path fill-rule="evenodd" clip-rule="evenodd" d="M45 100C31.748 100 21 110.744 21 124C21 137.254 31.748 148 45 148C58.254 148 69 137.254 69 124C69 110.744 58.254 100 45 100ZM51.448 135.742C51.824 136.008 52.308 136.074 52.74 135.912C53.17 135.748 53.488 135.378 53.584 134.93C54.598 130.166 57.058 118.106 57.98 113.774C58.05 113.446 57.934 113.106 57.678 112.888C57.42 112.67 57.064 112.608 56.748 112.724C51.856 114.536 36.79 120.188 30.632 122.466C30.242 122.612 29.988 122.986 30 123.4C30.014 123.812 30.292 124.17 30.692 124.29C33.454 125.116 37.078 126.266 37.078 126.266C37.078 126.266 38.772 131.382 39.654 133.982C39.766 134.31 40.022 134.566 40.358 134.654C40.696 134.742 41.054 134.65 41.306 134.412C42.724 133.074 44.916 131.004 44.916 131.004C44.916 131.004 49.084 134.058 51.448 135.742ZM38.602 125.618L40.562 132.08L40.998 127.988C40.998 127.988 48.564 121.162 52.88 117.272C53.006 117.158 53.022 116.966 52.918 116.832C52.814 116.698 52.622 116.666 52.48 116.758C47.48 119.95 38.602 125.618 38.602 125.618Z" fill="black"/>
<circle cx="197" cy="202" r="45" fill="url(#paint1_linear_180_2776)"/>
<path d="M218.123 208.12C217.639 206.793 216.972 205.583 216.104 204.471C215.237 203.36 214.202 202.398 212.984 201.585C212.684 201.353 212.484 201.055 212.417 200.657C212.334 200.275 212.434 199.927 212.684 199.661C214.669 197.273 215.654 194.636 215.654 191.75C215.654 188.632 214.569 185.845 212.417 183.39C210.265 180.936 207.495 179.327 204.108 178.547C202.69 178.182 201.339 178 200.071 178H181.518C181.118 178 180.767 178.133 180.45 178.415C180.15 178.68 180 179.028 180 179.443V224.557C180 224.972 180.15 225.32 180.45 225.585C180.751 225.867 181.118 226 181.518 226H203.341C204.509 226 205.777 225.834 207.145 225.519C210.532 224.739 213.351 223.131 215.554 220.676C217.756 218.221 218.857 215.418 218.857 212.25C218.857 210.824 218.607 209.447 218.123 208.12ZM208.229 214.091C205.977 216.894 202.874 218.453 198.953 218.768C198.486 218.818 198.052 218.835 197.635 218.835C194.815 218.835 192.263 218.105 189.96 216.629C187.658 215.169 186.09 213.279 185.255 210.99C185.072 210.492 185.122 210.011 185.422 209.547C185.723 209.082 186.123 208.817 186.64 208.717L190.511 208.236C191.295 208.153 191.879 208.419 192.246 209.066C192.53 209.613 192.964 210.111 193.597 210.542C194.215 210.973 194.949 211.305 195.783 211.504C196.617 211.703 197.468 211.786 198.336 211.753C200.271 211.57 201.723 210.857 202.69 209.63C203.291 208.933 203.525 208.203 203.391 207.424C203.291 206.561 202.84 205.898 202.006 205.466C201.172 205.035 199.704 204.587 197.585 204.123C195.833 203.758 194.582 203.41 193.848 203.095C191.128 201.95 189.226 200.258 188.175 198.003C187.107 195.764 187.107 193.392 188.175 190.921C189.043 188.814 190.661 187.238 192.98 186.21C195.299 185.182 197.835 184.916 200.555 185.414C202.073 185.729 203.591 186.475 205.093 187.62C206.594 188.764 207.595 190.24 208.096 192.015C208.279 192.513 208.196 193.01 207.846 193.458C207.495 193.923 207.045 194.155 206.494 194.155L202.34 194.221C201.839 194.271 201.389 194.039 201.022 193.525C200.521 192.927 199.871 192.563 199.087 192.43C198.069 192.198 197.151 192.231 196.317 192.496C195.483 192.778 194.949 193.16 194.732 193.657C194.231 194.851 194.849 195.78 196.601 196.477C196.918 196.61 197.735 196.842 199.02 197.173C200.088 197.406 200.938 197.605 201.606 197.754C202.273 197.92 203.191 198.235 204.342 198.716C205.493 199.197 206.444 199.744 207.178 200.325C207.912 200.922 208.613 201.751 209.247 202.829C209.881 203.907 210.315 205.135 210.498 206.511C210.882 209.281 210.115 211.802 208.229 214.091Z" fill="black"/>
<circle cx="45" cy="292" r="45" fill="url(#paint2_linear_180_2776)"/>
<path d="M45 272.326C51.408 272.326 52.168 272.35 54.7 272.466C61.204 272.762 64.242 275.848 64.538 282.304C64.654 284.834 64.676 285.594 64.676 292.002C64.676 298.412 64.652 299.17 64.538 301.7C64.24 308.15 61.21 311.242 54.7 311.538C52.168 311.654 51.412 311.678 45 311.678C38.592 311.678 37.832 311.654 35.302 311.538C28.782 311.24 25.76 308.14 25.464 301.698C25.348 299.168 25.324 298.41 25.324 292C25.324 285.592 25.35 284.834 25.464 282.302C25.762 275.848 28.792 272.76 35.302 272.464C37.834 272.35 38.592 272.326 45 272.326ZM45 268C38.482 268 37.666 268.028 35.106 268.144C26.39 268.544 21.546 273.38 21.146 282.104C21.028 284.666 21 285.482 21 292C21 298.518 21.028 299.336 21.144 301.896C21.544 310.612 26.38 315.456 35.104 315.856C37.666 315.972 38.482 316 45 316C51.518 316 52.336 315.972 54.896 315.856C63.604 315.456 68.46 310.62 68.854 301.896C68.972 299.336 69 298.518 69 292C69 285.482 68.972 284.666 68.856 282.106C68.464 273.398 63.622 268.546 54.898 268.146C52.336 268.028 51.518 268 45 268V268ZM45 279.676C38.194 279.676 32.676 285.194 32.676 292C32.676 298.806 38.194 304.326 45 304.326C51.806 304.326 57.324 298.808 57.324 292C57.324 285.194 51.806 279.676 45 279.676ZM45 300C40.582 300 37 296.42 37 292C37 287.582 40.582 284 45 284C49.418 284 53 287.582 53 292C53 296.42 49.418 300 45 300ZM57.812 276.31C56.22 276.31 54.93 277.6 54.93 279.19C54.93 280.78 56.22 282.07 57.812 282.07C59.402 282.07 60.69 280.78 60.69 279.19C60.69 277.6 59.402 276.31 57.812 276.31Z" fill="black"/>
<g filter="url(#filter0_d_180_2776)">
<circle cx="197" cy="369" r="45" fill="url(#paint3_linear_180_2776)"/>
<path fill-rule="evenodd" clip-rule="evenodd" d="M197 345C183.748 345 173 355.744 173 369C173 382.254 183.748 393 197 393C210.254 393 221 382.254 221 369C221 355.744 210.254 345 197 345ZM208.086 377.778C209.864 376.49 211 374.584 211 372.466C211 368.586 207.224 365.438 202.566 365.438C197.908 365.438 194.132 368.586 194.132 372.466C194.132 376.348 197.908 379.494 202.566 379.494C203.528 379.494 204.458 379.358 205.32 379.11L205.568 379.072C205.73 379.072 205.876 379.122 206.016 379.202L207.862 380.268L208.024 380.32C208.18 380.32 208.304 380.194 208.304 380.04L208.26 379.834L207.88 378.416L207.85 378.236C207.85 378.048 207.944 377.88 208.086 377.778ZM193.12 357.68C187.532 357.68 183 361.456 183 366.114C183 368.654 184.364 370.942 186.496 372.488C186.668 372.61 186.78 372.81 186.78 373.038L186.744 373.252L186.288 374.954L186.234 375.2C186.234 375.386 186.386 375.538 186.572 375.538L186.766 375.474L188.982 374.196C189.148 374.1 189.326 374.04 189.52 374.04L189.818 374.084C190.85 374.382 191.966 374.546 193.12 374.546L193.676 374.534C193.456 373.876 193.336 373.184 193.336 372.466C193.336 368.22 197.468 364.776 202.566 364.776L203.116 364.79C202.354 360.76 198.17 357.68 193.12 357.68ZM199.754 371.342C199.134 371.342 198.63 370.838 198.63 370.218C198.63 369.596 199.134 369.094 199.754 369.094C200.376 369.094 200.88 369.596 200.88 370.218C200.88 370.838 200.376 371.342 199.754 371.342ZM205.378 371.342C204.756 371.342 204.254 370.838 204.254 370.218C204.254 369.596 204.756 369.094 205.378 369.094C205.998 369.094 206.502 369.596 206.502 370.218C206.502 370.838 205.998 371.342 205.378 371.342ZM189.748 364.764C189.002 364.764 188.398 364.16 188.398 363.414C188.398 362.67 189.002 362.066 189.748 362.066C190.492 362.066 191.096 362.67 191.096 363.414C191.096 364.16 190.492 364.764 189.748 364.764ZM196.494 364.764C195.748 364.764 195.144 364.16 195.144 363.414C195.144 362.67 195.748 362.066 196.494 362.066C197.24 362.066 197.844 362.67 197.844 363.414C197.844 364.16 197.24 364.764 196.494 364.764Z" fill="black"/>
</g>
<circle cx="197" cy="45" r="45" fill="url(#paint4_linear_180_2776)"/>
<path d="M194.103 32.3118C196.619 31.7314 199.246 31.9155 201.66 32.8412C204.074 33.7669 206.168 35.3935 207.682 37.5193L184.194 42.9286C184.599 40.3474 185.762 37.9514 187.531 36.0562C189.299 34.1611 191.591 32.8556 194.103 32.3118ZM207.814 52.144C205.955 54.8939 203.142 56.8255 199.941 57.5505C197.41 58.1358 194.766 57.9486 192.339 57.0124C189.911 56.0762 187.81 54.4326 186.295 52.287L209.847 46.8777L213.653 46.0116L221 44.33C220.936 42.7358 220.738 41.1502 220.408 39.5905C217.456 26.6979 204.529 18.6231 191.605 21.6277C178.681 24.6322 170.615 37.452 173.633 50.4063C176.651 63.3606 189.509 71.3737 202.433 68.3691C206.026 67.553 209.385 65.9055 212.25 63.5544C215.116 61.2033 217.411 58.2119 218.957 54.8122L207.803 52.144H207.814Z" fill="black"/>
<circle cx="343" cy="124" r="45" fill="url(#paint5_linear_180_2776)"/>
<path d="M320.472 147.192L323.687 135.451C321.703 132.014 320.661 128.119 320.663 124.124C320.668 111.635 330.834 101.472 343.325 101.472C349.386 101.474 355.076 103.834 359.355 108.116C363.633 112.399 365.988 118.091 365.986 124.145C365.981 136.636 355.815 146.799 343.325 146.799C339.533 146.797 335.796 145.847 332.486 144.041L320.472 147.192ZM333.043 139.939C336.236 141.835 339.285 142.97 343.317 142.972C353.698 142.972 362.154 134.525 362.16 124.141C362.164 113.736 353.747 105.301 343.332 105.297C332.944 105.297 324.493 113.744 324.489 124.126C324.487 128.365 325.729 131.538 327.816 134.859L325.912 141.808L333.043 139.939ZM354.74 129.53C354.599 129.294 354.222 129.153 353.654 128.869C353.088 128.585 350.304 127.216 349.784 127.027C349.266 126.839 348.889 126.743 348.509 127.311C348.132 127.877 347.046 129.153 346.716 129.53C346.387 129.908 346.055 129.955 345.489 129.671C344.923 129.387 343.098 128.791 340.935 126.861C339.253 125.36 338.115 123.507 337.785 122.939C337.456 122.373 337.751 122.067 338.033 121.785C338.288 121.531 338.599 121.124 338.883 120.792C339.171 120.464 339.264 120.228 339.455 119.849C339.643 119.472 339.55 119.141 339.407 118.857C339.264 118.575 338.132 115.788 337.661 114.654C337.2 113.551 336.733 113.7 336.387 113.683L335.301 113.664C334.923 113.664 334.31 113.805 333.791 114.372C333.273 114.94 331.81 116.308 331.81 119.095C331.81 121.882 333.839 124.574 334.121 124.951C334.405 125.328 338.113 131.047 343.793 133.498C345.144 134.081 346.2 134.43 347.021 134.691C348.378 135.122 349.613 135.061 350.588 134.916C351.676 134.754 353.938 133.546 354.411 132.224C354.883 130.9 354.883 129.767 354.74 129.53Z" fill="black"/>
<circle cx="343" cy="292" r="45" fill="url(#paint6_linear_180_2776)"/>
<path d="M343 268C329.746 268 319 278.743 319 291.994C319 305.245 329.746 315.988 343 315.988C356.254 315.988 367 305.245 367 291.994C367 278.743 356.254 268 343 268ZM349 283.996H346.3C345.224 283.996 345 284.438 345 285.552V287.995H349L348.582 291.994H345V305.99H339V291.994H335V287.995H339V283.38C339 279.843 340.862 277.997 345.058 277.997H349V283.996Z" fill="black"/>
<defs>
<filter id="filter0_d_180_2776" x="140" y="321" width="114" height="114" filterUnits="userSpaceOnUse" color-interpolation-filters="sRGB">
<feFlood flood-opacity="0" result="BackgroundImageFix"/>
<feColorMatrix in="SourceAlpha" type="matrix" values="0 0 0 0 0 0 0 0 0 0 0 0 0 0 0 0 0 0 127 0" result="hardAlpha"/>
<feOffset dy="9"/>
<feGaussianBlur stdDeviation="6"/>
<feColorMatrix type="matrix" values="0 0 0 0 0 0 0 0 0 0 0 0 0 0 0 0 0 0 0.03 0"/>
<feBlend mode="normal" in2="BackgroundImageFix" result="effect1_dropShadow_180_2776"/>
<feBlend mode="normal" in="SourceGraphic" in2="effect1_dropShadow_180_2776" result="shape"/>
</filter>
<linearGradient id="paint0_linear_180_2776" x1="0" y1="124" x2="90" y2="124" gradientUnits="userSpaceOnUse">
<stop stop-color="#EFECFF"/>
<stop offset="1" stop-color="#C4B8FF"/>
</linearGradient>
<linearGradient id="paint1_linear_180_2776" x1="152" y1="202" x2="242" y2="202" gradientUnits="userSpaceOnUse">
<stop stop-color="#EFECFF"/>
<stop offset="1" stop-color="#C4B8FF"/>
</linearGradient>
<linearGradient id="paint2_linear_180_2776" x1="0" y1="292" x2="90" y2="292" gradientUnits="userSpaceOnUse">
<stop stop-color="#EFECFF"/>
<stop offset="1" stop-color="#C4B8FF"/>
</linearGradient>
<linearGradient id="paint3_linear_180_2776" x1="152" y1="369" x2="242" y2="369" gradientUnits="userSpaceOnUse">
<stop stop-color="#EFECFF"/>
<stop offset="1" stop-color="#C4B8FF"/>
</linearGradient>
<linearGradient id="paint4_linear_180_2776" x1="152" y1="45" x2="242" y2="45" gradientUnits="userSpaceOnUse">
<stop stop-color="#EFECFF"/>
<stop offset="1" stop-color="#C4B8FF"/>
</linearGradient>
<linearGradient id="paint5_linear_180_2776" x1="298" y1="124" x2="388" y2="124" gradientUnits="userSpaceOnUse">
<stop stop-color="#EFECFF"/>
<stop offset="1" stop-color="#C4B8FF"/>
</linearGradient>
<linearGradient id="paint6_linear_180_2776" x1="298" y1="292" x2="388" y2="292" gradientUnits="userSpaceOnUse">
<stop stop-color="#EFECFF"/>
<stop offset="1" stop-color="#C4B8FF"/>
</linearGradient>
</defs>
</svg>
