<svg width="139" height="42" viewBox="0 0 139 42" fill="none" xmlns="http://www.w3.org/2000/svg">
<rect x="0.5" width="41.99" height="41.99" rx="11.05" fill="#42CCFF"/>
<path fill-rule="evenodd" clip-rule="evenodd" d="M19.4227 15.5308C19.1252 15.6079 18.8898 15.7997 18.7406 16.0866C18.6798 16.2034 18.6569 16.3838 18.6328 16.9344C18.5977 17.7381 18.52 18.0772 18.2531 18.5902C17.8334 19.3969 17.1439 19.9589 16.2207 20.2467C15.8052 20.3762 14.954 20.3867 14.5268 20.2676C13.8546 20.0802 13.176 19.6513 12.7901 19.1699C12.6735 19.0245 12.4733 18.7028 12.3453 18.455C12.0933 17.9675 11.9146 17.7717 11.656 17.6999C11.4569 17.6446 11.408 17.6446 11.2111 17.6992C11.0003 17.7578 10.8016 17.9317 10.7066 18.1407C10.6337 18.3013 10.6288 18.4874 10.6279 21.1203L10.627 23.9286H21.4833H32.3397L32.3123 23.7696C32.2137 23.1971 31.8589 22.6157 31.3906 22.2586C30.928 21.906 30.6035 21.8152 29.6385 21.7684C28.8293 21.7291 28.3528 21.647 27.7681 21.4463C27.3729 21.3106 26.7144 20.9844 26.4169 20.777L26.205 20.6292L25.4101 21.4202L24.6152 22.2112L24.16 21.7559L23.7047 21.3007L24.4356 20.5689C24.8376 20.1664 25.1665 19.8261 25.1665 19.8126C25.1665 19.7784 24.4997 19.2234 24.4587 19.2234C24.4404 19.2234 24.0626 19.5859 23.6191 20.029L22.8127 20.8345L22.3688 20.3891L21.9249 19.9437L22.7022 19.1654L23.4796 18.3872L23.1204 18.0847C22.9228 17.9183 22.7445 17.7822 22.7243 17.7822C22.704 17.7822 22.3106 18.1586 21.85 18.6188L21.0127 19.4554L20.5672 19.0114L20.1218 18.5675L20.9344 17.7541L21.747 16.9407L21.6234 16.8368C20.6946 16.0559 20.2841 15.7242 20.1433 15.641C19.957 15.5307 19.621 15.4794 19.4227 15.5308ZM10.9531 25.3341C11.0826 25.5606 11.4835 25.9698 11.7364 26.1337C11.8686 26.2195 12.1166 26.3354 12.2874 26.3914L12.5981 26.4931H21.4786C29.979 26.4931 30.37 26.4898 30.6135 26.4152C31.1806 26.2414 31.7441 25.8152 31.9832 25.3791L32.0813 25.2003H21.4789H10.8765L10.9531 25.3341Z" fill="white"/>
<path d="M56.8329 27.0498V16.0661H63.3458V17.7214H58.6893V20.8773H62.8662V22.5326H58.6893V27.0498H56.8329ZM68.4149 27.2819C67.827 27.2819 67.2804 27.1787 66.775 26.9725C66.28 26.7559 65.8468 26.4568 65.4756 26.0752C65.1043 25.6833 64.8155 25.2295 64.6092 24.7138C64.403 24.1879 64.2998 23.6155 64.2998 22.9967C64.2998 22.3882 64.403 21.8261 64.6092 21.3104C64.8155 20.7845 65.1043 20.3307 65.4756 19.9491C65.8571 19.5572 66.3006 19.2581 66.806 19.0518C67.3216 18.8352 67.8786 18.7269 68.4767 18.7269C69.0646 18.7269 69.606 18.8352 70.1011 19.0518C70.6064 19.2581 71.0448 19.5572 71.416 19.9491C71.7873 20.3307 72.0761 20.7793 72.2824 21.295C72.4886 21.8106 72.5918 22.3779 72.5918 22.9967C72.5918 23.6155 72.4886 24.1879 72.2824 24.7138C72.0761 25.2295 71.7822 25.6833 71.4006 26.0752C71.0293 26.4568 70.5858 26.7559 70.0701 26.9725C69.5648 27.1787 69.013 27.2819 68.4149 27.2819ZM68.4458 25.673C68.8893 25.673 69.2863 25.5595 69.637 25.3326C69.9876 25.0954 70.2609 24.7757 70.4569 24.3735C70.6632 23.9713 70.7663 23.5123 70.7663 22.9967C70.7663 22.481 70.6632 22.0272 70.4569 21.6353C70.2609 21.2331 69.9876 20.9185 69.637 20.6916C69.2863 20.4544 68.8893 20.3358 68.4458 20.3358C68.0023 20.3358 67.6053 20.4544 67.2546 20.6916C66.904 20.9185 66.6255 21.2331 66.4192 21.6353C66.2233 22.0272 66.1253 22.481 66.1253 22.9967C66.1253 23.5123 66.2233 23.9713 66.4192 24.3735C66.6255 24.7757 66.904 25.0954 67.2546 25.3326C67.6053 25.5595 68.0023 25.673 68.4458 25.673ZM74.1582 27.0498V18.959H75.7826L75.8599 20.2894C76.0662 19.8356 76.3498 19.485 76.7108 19.2375C77.082 18.9796 77.5152 18.8507 78.0102 18.8507C78.1649 18.8507 78.3145 18.861 78.4589 18.8816C78.6033 18.9023 78.7322 18.9384 78.8456 18.9899L78.6445 20.7226C78.5311 20.6813 78.4125 20.6555 78.2887 20.6452C78.1649 20.6246 78.0412 20.6143 77.9174 20.6143C77.2986 20.6143 76.8139 20.8206 76.4632 21.2331C76.1126 21.6456 75.9373 22.218 75.9373 22.9503V27.0498H74.1582ZM86.7908 27.2819C85.976 27.2819 85.3366 27.0498 84.8725 26.5857C84.4084 26.1113 84.1764 25.4358 84.1764 24.5591V20.3977H82.7531V18.959H84.1764V16.2208H85.9554V18.959H88.3069V20.3977H85.9554V24.3735C85.9554 24.8067 86.0431 25.1418 86.2184 25.379C86.404 25.6059 86.6722 25.7194 87.0228 25.7194C87.2085 25.7194 87.4096 25.6936 87.6262 25.642C87.8428 25.5802 88.0439 25.4976 88.2295 25.3945L88.6317 26.7404C88.3945 26.9054 88.1161 27.0343 87.7963 27.1272C87.4869 27.2303 87.1518 27.2819 86.7908 27.2819ZM90.0361 27.0498V18.959H91.6605L91.7378 20.2894C91.9441 19.8356 92.2277 19.485 92.5887 19.2375C92.9599 18.9796 93.3931 18.8507 93.8881 18.8507C94.0428 18.8507 94.1924 18.861 94.3368 18.8816C94.4812 18.9023 94.6101 18.9384 94.7235 18.9899L94.5224 20.7226C94.409 20.6813 94.2904 20.6555 94.1666 20.6452C94.0428 20.6246 93.9191 20.6143 93.7953 20.6143C93.1765 20.6143 92.6918 20.8206 92.3411 21.2331C91.9905 21.6456 91.8152 22.218 91.8152 22.9503V27.0498H90.0361ZM98.3126 27.2819C97.9 27.2819 97.5184 27.22 97.1678 27.0962C96.8274 26.9725 96.5284 26.7971 96.2705 26.5702C96.0127 26.3433 95.8116 26.0752 95.6672 25.7658C95.5228 25.4564 95.4506 25.1161 95.4506 24.7448C95.4506 24.2291 95.5847 23.7805 95.8528 23.3989C96.1313 23.007 96.518 22.7027 97.0131 22.4862C97.5081 22.2696 98.0857 22.1613 98.7457 22.1613C99.1067 22.1613 99.4522 22.1974 99.7822 22.2696C100.112 22.3315 100.427 22.4243 100.726 22.548V22.0375C100.726 21.6766 100.659 21.362 100.525 21.0939C100.391 20.8154 100.2 20.5988 99.9524 20.4441C99.7049 20.2894 99.4058 20.2121 99.0551 20.2121C98.6838 20.2121 98.3487 20.31 98.0496 20.506C97.7505 20.7019 97.5288 20.9753 97.3844 21.3259L95.7445 20.9546C95.8683 20.5008 96.09 20.1089 96.4098 19.7789C96.7398 19.4489 97.1317 19.191 97.5855 19.0054C98.0496 18.8198 98.5498 18.7269 99.0861 18.7269C99.5914 18.7269 100.05 18.8095 100.463 18.9745C100.886 19.1395 101.247 19.3715 101.546 19.6706C101.845 19.9697 102.077 20.3255 102.242 20.738C102.407 21.1506 102.489 21.6095 102.489 22.1149V27.0498H100.865L100.803 25.9824C100.587 26.3743 100.262 26.6888 99.8286 26.926C99.3955 27.1633 98.8901 27.2819 98.3126 27.2819ZM97.2451 24.6674C97.2451 24.8943 97.307 25.1006 97.4308 25.2862C97.5545 25.4616 97.7247 25.6008 97.9413 25.7039C98.1682 25.807 98.4312 25.8586 98.7303 25.8586C99.1118 25.8586 99.4522 25.7761 99.7513 25.6111C100.05 25.4461 100.288 25.2243 100.463 24.9459C100.638 24.6571 100.726 24.3322 100.726 23.9713V23.7856C100.458 23.6722 100.179 23.5845 99.8905 23.5226C99.612 23.4505 99.3233 23.4144 99.0242 23.4144C98.4879 23.4144 98.0547 23.5278 97.7247 23.7547C97.405 23.9816 97.2451 24.2858 97.2451 24.6674ZM106.368 16.7004C106.368 16.8963 106.316 17.0768 106.213 17.2418C106.12 17.4068 105.992 17.5409 105.827 17.644C105.661 17.7369 105.481 17.7833 105.285 17.7833C105.089 17.7833 104.909 17.7369 104.744 17.644C104.579 17.5409 104.445 17.4068 104.341 17.2418C104.249 17.0768 104.202 16.8963 104.202 16.7004C104.202 16.5044 104.249 16.3239 104.341 16.1589C104.445 15.9939 104.579 15.865 104.744 15.7722C104.909 15.669 105.089 15.6175 105.285 15.6175C105.481 15.6175 105.661 15.669 105.827 15.7722C105.992 15.865 106.12 15.9939 106.213 16.1589C106.316 16.3239 106.368 16.5044 106.368 16.7004ZM104.403 27.0498V18.959H106.182V27.0498H104.403ZM108.105 27.0498V18.959H109.729L109.791 20.0728C110.028 19.6603 110.358 19.3354 110.781 19.0982C111.214 18.8507 111.709 18.7269 112.266 18.7269C112.875 18.7269 113.4 18.8713 113.844 19.1601C114.298 19.4489 114.648 19.8563 114.896 20.3822C115.143 20.9082 115.267 21.527 115.267 22.2386V27.0498H113.488V22.4397C113.488 21.7797 113.339 21.264 113.04 20.8927C112.751 20.5215 112.343 20.3358 111.817 20.3358C111.446 20.3358 111.111 20.4235 110.812 20.5988C110.523 20.7741 110.296 21.0113 110.131 21.3104C109.966 21.6095 109.884 21.955 109.884 22.3469V27.0498H108.105ZM120.943 27.2819C120.345 27.2819 119.793 27.1787 119.288 26.9725C118.793 26.7559 118.36 26.4568 117.989 26.0752C117.617 25.6936 117.329 25.245 117.122 24.7293C116.926 24.2033 116.828 23.6258 116.828 22.9967C116.828 22.3882 116.926 21.8261 117.122 21.3104C117.329 20.7948 117.607 20.3461 117.958 19.9645C118.319 19.5726 118.741 19.2684 119.226 19.0518C119.711 18.8352 120.237 18.7269 120.804 18.7269C121.371 18.7269 121.887 18.8301 122.351 19.0363C122.826 19.2323 123.233 19.5159 123.573 19.8872C123.924 20.2585 124.192 20.7019 124.378 21.2176C124.563 21.723 124.656 22.285 124.656 22.9038V23.4298H118.669C118.721 23.9042 118.845 24.3168 119.041 24.6674C119.247 25.0078 119.51 25.2708 119.83 25.4564C120.149 25.642 120.521 25.7349 120.943 25.7349C121.789 25.7349 122.449 25.3584 122.924 24.6055L124.486 25.2089C124.3 25.6317 124.027 26.003 123.666 26.3227C123.315 26.6321 122.903 26.8693 122.428 27.0343C121.964 27.1993 121.469 27.2819 120.943 27.2819ZM120.804 20.1657C120.443 20.1657 120.118 20.2482 119.83 20.4132C119.551 20.5782 119.314 20.8102 119.118 21.1093C118.922 21.4084 118.788 21.7591 118.716 22.1613H122.8C122.738 21.7591 122.619 21.4084 122.444 21.1093C122.269 20.8102 122.037 20.5782 121.748 20.4132C121.469 20.2482 121.155 20.1657 120.804 20.1657ZM126.173 27.0498V18.959H127.797L127.875 20.2894C128.081 19.8356 128.365 19.485 128.726 19.2375C129.097 18.9796 129.53 18.8507 130.025 18.8507C130.18 18.8507 130.329 18.861 130.474 18.8816C130.618 18.9023 130.747 18.9384 130.86 18.9899L130.659 20.7226C130.546 20.6813 130.427 20.6555 130.304 20.6452C130.18 20.6246 130.056 20.6143 129.932 20.6143C129.313 20.6143 128.829 20.8206 128.478 21.2331C128.127 21.6456 127.952 22.218 127.952 22.9503V27.0498H126.173ZM134.94 27.2819C134.414 27.2819 133.924 27.1942 133.47 27.0189C133.027 26.8435 132.645 26.596 132.325 26.2763C132.016 25.9463 131.794 25.5595 131.66 25.1161L133.269 24.6984C133.403 25.049 133.62 25.3223 133.919 25.5183C134.218 25.7142 134.563 25.8122 134.955 25.8122C135.358 25.8122 135.688 25.7194 135.945 25.5337C136.203 25.3378 136.332 25.0903 136.332 24.7912C136.332 24.5334 136.229 24.3168 136.023 24.1414C135.816 23.9661 135.481 23.8372 135.017 23.7547L134.507 23.6619C133.64 23.5072 132.985 23.2287 132.542 22.8265C132.109 22.4243 131.892 21.9086 131.892 21.2795C131.892 20.7741 132.021 20.3307 132.279 19.9491C132.537 19.5675 132.893 19.2684 133.346 19.0518C133.8 18.8352 134.321 18.7269 134.909 18.7269C135.414 18.7269 135.878 18.8146 136.301 18.9899C136.724 19.1653 137.08 19.4128 137.369 19.7325C137.657 20.0522 137.864 20.4286 137.987 20.8618L136.394 21.2486C136.27 20.9185 136.074 20.6607 135.806 20.4751C135.548 20.2791 135.244 20.1811 134.893 20.1811C134.532 20.1811 134.233 20.2739 133.996 20.4596C133.759 20.6349 133.64 20.8618 133.64 21.1403C133.64 21.3775 133.743 21.5734 133.95 21.7281C134.166 21.8828 134.527 22.0066 135.033 22.0994L135.543 22.1922C136.368 22.3366 137.003 22.6202 137.446 23.0431C137.889 23.4659 138.111 23.9919 138.111 24.621C138.111 25.0026 138.034 25.3584 137.879 25.6884C137.724 26.0082 137.503 26.2918 137.214 26.5393C136.935 26.7765 136.6 26.957 136.208 27.0807C135.827 27.2148 135.404 27.2819 134.94 27.2819Z" fill="black"/>
</svg>
