<svg width="48" height="48" viewBox="0 0 48 48" fill="none" xmlns="http://www.w3.org/2000/svg">
<circle cx="24" cy="24" r="24" fill="#67D9A2"/>
<path fill-rule="evenodd" clip-rule="evenodd" d="M23.74 28.6938L27.352 26.9235L23.65 23.7975L24.7952 23.2368L30.7876 25.2395L33.6502 23.8364C34.4053 23.4616 35.6521 23.5622 35.9348 24.1276C35.9799 24.2178 36 24.3202 36 24.4303C35.9971 25.008 35.4125 25.7907 34.7839 26.1038L31.9213 27.507L29.8983 33.4393L28.7531 34L28.4857 29.1909L24.8737 30.9613L24.1282 32.7382L23.328 33.131L23.0472 30.4451L21.0596 28.5961L21.8608 28.2033L23.74 28.6938ZM21.6442 32.6727C17.025 34.1347 13.3747 30.4186 13 28.2821C14.5075 29.9262 17.4313 31.3758 20.6408 30.4224L21.4899 31.2184L21.6442 32.6727ZM13.1284 26.0459C13.0441 25.5384 13 25.0175 13 24.4872C13 19.2474 17.2905 15 22.5833 15C27.305 15 31.2304 18.3822 32.021 22.8326L30.4819 23.5935C29.284 23.1429 26.226 22.012 26.226 22.012C25.6078 21.7966 24.9427 21.5803 24.6093 21.6913C24.6917 21.3318 24.4521 21.0082 24.0908 20.7483C24.0017 20.6838 23.282 20.1904 23.4765 20.5149L24.1071 21.1354C24.0755 21.1562 23.9413 20.9096 23.9413 21.0898C23.9835 20.9836 23.9566 21.5481 23.8579 21.3631C23.8148 21.2929 23.9298 21.254 23.8627 21.1524C23.8627 21.0851 23.6816 21.0196 23.6452 20.9741C23.5455 20.8508 23.28 20.5804 23.1363 20.5159C23.097 20.4978 22.5268 20.5851 22.4789 20.6031L22.3361 20.8489C22.2163 20.8925 22.1061 20.9485 22.0007 21.0177L21.8761 21.2966C21.8205 21.3441 21.2647 21.5262 21.2618 21.5338C21.2858 21.4741 20.8727 21.3982 20.8995 21.2796C20.9302 21.1496 21.0701 20.7416 21.0337 20.5936C20.9954 20.4371 21.8914 20.8175 21.9499 20.4068C21.9729 20.2293 21.9863 20.0216 21.6988 19.9922C21.7534 19.9979 22.2546 19.7977 22.337 19.7075C22.454 19.5747 22.7213 19.3565 22.9159 19.3565C23.142 19.3565 23.0932 19.0302 23.1976 18.8708C23.3021 18.9125 23.1411 19.1677 23.2666 19.2711C23.259 19.1905 23.6222 19.3157 23.6576 19.2977C23.741 19.2531 24.2048 19.2797 24.133 19.0634C24.0525 18.8442 24.1732 18.9097 24.2767 18.8632C24.2585 18.8708 24.5479 18.3746 24.5977 18.5368C24.5642 18.3699 24.2623 18.5956 24.1569 18.5881C23.9135 18.5681 24.016 18.1763 24.109 18.0615C24.1799 17.9704 23.9145 17.8594 23.9116 18.0331C23.9068 18.293 23.6624 18.5283 23.718 18.8746C23.8052 19.3954 23.1315 18.7493 23.073 18.7844C22.8488 18.9182 22.6667 18.6156 22.7817 18.4325C22.9005 18.2465 23.1842 18.256 23.303 18.0568C23.3855 17.9164 23.4813 17.7532 23.6107 17.646C24.0371 17.2912 24.155 17.5748 24.5805 17.6137C24.9974 17.6517 24.7214 17.7114 24.6648 17.8699C24.6093 18.0207 24.8929 18.0739 24.9907 17.9477C25.0472 17.8756 25.1747 17.6925 25.2293 17.5577C25.3002 17.3822 25.949 17.4022 25.4957 17.1337C25.1967 16.9572 23.8953 16.6024 23.0232 16.6024C22.8344 16.6024 22.7031 16.8092 22.5594 16.9278C22.2747 17.1612 21.5474 17.6194 21.142 17.48C20.727 17.3386 19.8396 18.0017 19.6978 18.0065C19.6451 18.0093 19.6997 17.5046 19.9834 17.4686C19.8598 17.4856 20.9791 16.9088 20.9484 16.7883C20.912 16.646 18.7136 17.4382 18.8113 17.5976C18.8573 17.6697 19.05 17.6697 18.7989 17.83C18.6551 17.9154 18.5008 18.4628 18.3657 18.4628C17.9622 18.6374 17.9373 18.1194 17.4888 18.7863L16.7739 19.0719C15.714 20.1866 14.9809 21.5993 14.7145 23.1685C14.7039 23.232 14.9809 23.3468 15.0173 23.3905C15.1064 23.4967 15.1064 23.9531 15.1505 24.103C15.2607 24.4806 15.5329 24.6912 15.7418 25.0346C15.8645 25.2395 16.0686 25.7575 16.0044 25.9719C16.0916 25.8315 16.8592 26.6171 16.9991 26.7802C17.3297 27.1654 17.5856 27.6322 17.048 28.0126C16.9081 28.1132 17.1678 28.6369 17.1515 28.9329C14.7058 28.4652 13.1284 26.0459 13.1284 26.0459ZM23.0069 26.8353C22.9973 26.6778 22.8977 26.4909 22.6897 26.5507C22.2393 26.6806 22.3763 26.2015 22.0486 26.2243C21.8119 26.2404 21.6173 26.3894 21.3979 26.4548C21.1219 26.5364 20.8392 26.3903 20.566 26.3562C19.4419 26.2158 19.0758 24.9445 19.3691 24.0261C19.3988 23.8762 19.278 23.5973 19.3307 23.4815C19.4563 23.2036 19.715 22.8905 19.9393 22.6799C20.0648 22.5613 20.2277 22.5917 20.3763 22.4996C20.6053 22.3564 20.6082 22.0623 20.8325 21.882C21.1525 21.624 21.5886 21.6296 22.0055 21.5756C22.2268 21.5462 23.0721 21.365 23.2053 21.5281C23.2053 21.5575 23.35 21.9835 23.2024 21.9816L23.19 21.9807L23.2024 21.9816C23.2877 21.9892 23.3807 22.0291 23.4784 22.0822L22.9274 22.3526L22.7577 22.4484C22.6217 22.5366 22.499 22.6448 22.3955 22.7681C22.1032 23.1182 21.9719 23.5831 22.038 24.0328C22.062 24.1921 22.1099 24.3477 22.1799 24.4929C22.2498 24.638 22.3418 24.7728 22.452 24.8913L22.5929 25.0251L24.4147 26.563L23.5647 26.9804L23.0069 26.8353ZM23.4957 21.4598C23.4679 21.4076 23.7688 21.3801 23.8225 21.3801C23.8819 21.3868 23.6672 21.7369 23.4957 21.4598ZM21.7783 19.0311L21.8646 19.0064L21.8234 19.1146C21.8924 19.237 21.8416 19.31 21.8301 19.3764L21.7113 19.4495C21.6691 19.5026 21.9173 19.5093 21.9192 19.5169C21.9288 19.5434 21.6202 19.5871 21.6777 19.6516C21.7534 19.7597 22.3361 19.4979 22.2431 19.5131C22.4223 19.4229 22.2661 19.4134 22.1655 19.3622C22.131 19.1924 22.1023 18.9296 21.9959 18.8252L22.0658 18.7446C21.9 18.5084 21.7783 19.0311 21.7783 19.0311ZM21.3662 19.4618C21.2982 19.4893 21.2311 19.4466 21.2972 19.3802L21.3672 19.2958L21.3605 19.2579L21.4161 19.1895L21.4736 19.1753L21.5924 19.0928C21.6269 19.1004 21.7084 19.1668 21.6806 19.2095L21.6173 19.2873C21.603 19.4191 21.4688 19.4182 21.3682 19.4609L21.3662 19.4618L21.3682 19.4609L21.3662 19.4618Z" fill="white"/>
</svg>
