<svg width="33" height="32" viewBox="0 0 33 32" fill="none" xmlns="http://www.w3.org/2000/svg">
<path fill-rule="evenodd" clip-rule="evenodd" d="M23.3356 10.6C22.7484 11.0115 22.0981 11.3262 21.41 11.5321C20.6534 10.668 19.4343 10.3649 18.3572 10.7733C17.2801 11.1817 16.5742 12.2146 16.5897 13.3597V13.9689C14.4007 14.0253 12.3287 12.9893 11.0703 11.2092C11.0703 11.2092 8.61722 16.692 14.1366 19.1288C12.8736 19.9805 11.369 20.4075 9.84375 20.3472C15.3632 23.3932 22.1091 20.3472 22.1091 13.3414C22.1085 13.1717 22.0921 13.0024 22.06 12.8358C22.6859 12.2226 23.1276 11.4484 23.3356 10.6Z" stroke="#3671D5" stroke-width="1.44342" stroke-linecap="round" stroke-linejoin="round"/>
<path d="M31.8958 15.95C31.8958 24.4141 24.9874 31.2825 16.4568 31.2825C7.92625 31.2825 1.01785 24.4141 1.01785 15.95C1.01785 7.48594 7.92625 0.617463 16.4568 0.617463C24.9874 0.617463 31.8958 7.48594 31.8958 15.95Z" stroke="#3671D5" stroke-width="1.23493"/>
</svg>
