<svg width="125" height="42" viewBox="0 0 125 42" fill="none" xmlns="http://www.w3.org/2000/svg">
<rect width="41.99" height="41.99" rx="11.05" fill="#FFB459"/>
<path d="M24.666 20.083C26.1877 20.083 27.4068 18.8547 27.4068 17.333C27.4068 15.8113 26.1877 14.583 24.666 14.583C23.1443 14.583 21.916 15.8113 21.916 17.333C21.916 18.8547 23.1443 20.083 24.666 20.083ZM17.3327 20.083C18.8543 20.083 20.0735 18.8547 20.0735 17.333C20.0735 15.8113 18.8543 14.583 17.3327 14.583C15.811 14.583 14.5827 15.8113 14.5827 17.333C14.5827 18.8547 15.811 20.083 17.3327 20.083ZM17.3327 21.9163C15.1968 21.9163 10.916 22.9888 10.916 25.1247V26.4997C10.916 27.0038 11.3285 27.4163 11.8327 27.4163H22.8327C23.3368 27.4163 23.7493 27.0038 23.7493 26.4997V25.1247C23.7493 22.9888 19.4685 21.9163 17.3327 21.9163ZM24.666 21.9163C24.4002 21.9163 24.0977 21.9347 23.7768 21.9622C23.7952 21.9713 23.8043 21.9897 23.8135 21.9988C24.8585 22.7597 25.5827 23.7772 25.5827 25.1247V26.4997C25.5827 26.8205 25.5185 27.1322 25.4177 27.4163H30.166C30.6702 27.4163 31.0827 27.0038 31.0827 26.4997V25.1247C31.0827 22.9888 26.8018 21.9163 24.666 21.9163Z" fill="white"/>
<path d="M59.6263 27.0498V16.0661H66.1392V17.7214H61.4827V20.8773H65.6596V22.5326H61.4827V27.0498H59.6263ZM71.2083 27.2819C70.6204 27.2819 70.0738 27.1787 69.5685 26.9725C69.0734 26.7559 68.6403 26.4568 68.269 26.0752C67.8977 25.6833 67.6089 25.2295 67.4027 24.7138C67.1964 24.1879 67.0933 23.6155 67.0933 22.9967C67.0933 22.3882 67.1964 21.8261 67.4027 21.3104C67.6089 20.7845 67.8977 20.3307 68.269 19.9491C68.6506 19.5572 69.094 19.2581 69.5994 19.0518C70.1151 18.8352 70.672 18.7269 71.2702 18.7269C71.858 18.7269 72.3995 18.8352 72.8945 19.0518C73.3999 19.2581 73.8382 19.5572 74.2095 19.9491C74.5807 20.3307 74.8695 20.7793 75.0758 21.295C75.282 21.8106 75.3852 22.3779 75.3852 22.9967C75.3852 23.6155 75.282 24.1879 75.0758 24.7138C74.8695 25.2295 74.5756 25.6833 74.194 26.0752C73.8227 26.4568 73.3792 26.7559 72.8636 26.9725C72.3582 27.1787 71.8064 27.2819 71.2083 27.2819ZM71.2392 25.673C71.6827 25.673 72.0797 25.5595 72.4304 25.3326C72.7811 25.0954 73.0544 24.7757 73.2503 24.3735C73.4566 23.9713 73.5597 23.5123 73.5597 22.9967C73.5597 22.481 73.4566 22.0272 73.2503 21.6353C73.0544 21.2331 72.7811 20.9185 72.4304 20.6916C72.0797 20.4544 71.6827 20.3358 71.2392 20.3358C70.7957 20.3358 70.3987 20.4544 70.048 20.6916C69.6974 20.9185 69.4189 21.2331 69.2126 21.6353C69.0167 22.0272 68.9187 22.481 68.9187 22.9967C68.9187 23.5123 69.0167 23.9713 69.2126 24.3735C69.4189 24.7757 69.6974 25.0954 70.048 25.3326C70.3987 25.5595 70.7957 25.673 71.2392 25.673ZM76.9516 27.0498V18.959H78.576L78.6533 20.2894C78.8596 19.8356 79.1432 19.485 79.5042 19.2375C79.8755 18.9796 80.3086 18.8507 80.8037 18.8507C80.9584 18.8507 81.1079 18.861 81.2523 18.8816C81.3967 18.9023 81.5256 18.9384 81.639 18.9899L81.4379 20.7226C81.3245 20.6813 81.2059 20.6555 81.0821 20.6452C80.9584 20.6246 80.8346 20.6143 80.7108 20.6143C80.092 20.6143 79.6073 20.8206 79.2567 21.2331C78.906 21.6456 78.7307 22.218 78.7307 22.9503V27.0498H76.9516ZM89.8008 27.2819C89.0789 27.2819 88.4497 27.1272 87.9135 26.8178C87.3875 26.5084 86.9749 26.07 86.6759 25.5028C86.3871 24.9253 86.2427 24.2497 86.2427 23.4762V18.959H88.0217V23.5072C88.0217 24.1775 88.1816 24.7087 88.5013 25.1006C88.821 25.4822 89.2593 25.673 89.8163 25.673C90.3732 25.673 90.8115 25.4822 91.1312 25.1006C91.4509 24.7087 91.6108 24.1775 91.6108 23.5072V18.959H93.3898V23.4762C93.3898 24.2394 93.2403 24.9098 92.9412 25.4873C92.6524 26.0546 92.2399 26.498 91.7036 26.8178C91.1673 27.1272 90.533 27.2819 89.8008 27.2819ZM98.0763 27.2819C97.5503 27.2819 97.0604 27.1942 96.6066 27.0189C96.1632 26.8435 95.7816 26.596 95.4618 26.2763C95.1524 25.9463 94.9307 25.5595 94.7966 25.1161L96.4055 24.6984C96.5396 25.049 96.7562 25.3223 97.0553 25.5183C97.3543 25.7142 97.6998 25.8122 98.0917 25.8122C98.494 25.8122 98.824 25.7194 99.0818 25.5337C99.3397 25.3378 99.4686 25.0903 99.4686 24.7912C99.4686 24.5334 99.3654 24.3168 99.1592 24.1414C98.9529 23.9661 98.6177 23.8372 98.1536 23.7547L97.6431 23.6619C96.7768 23.5072 96.1219 23.2287 95.6784 22.8265C95.2453 22.4243 95.0287 21.9086 95.0287 21.2795C95.0287 20.7741 95.1576 20.3307 95.4154 19.9491C95.6733 19.5675 96.0291 19.2684 96.4829 19.0518C96.9367 18.8352 97.4575 18.7269 98.0453 18.7269C98.5507 18.7269 99.0148 18.8146 99.4376 18.9899C99.8605 19.1653 100.216 19.4128 100.505 19.7325C100.794 20.0522 101 20.4286 101.124 20.8618L99.5305 21.2486C99.4067 20.9185 99.2107 20.6607 98.9426 20.4751C98.6848 20.2791 98.3805 20.1811 98.0299 20.1811C97.6689 20.1811 97.3698 20.2739 97.1326 20.4596C96.8954 20.6349 96.7768 20.8618 96.7768 21.1403C96.7768 21.3775 96.8799 21.5734 97.0862 21.7281C97.3028 21.8828 97.6637 22.0066 98.1691 22.0994L98.6796 22.1922C99.5047 22.3366 100.139 22.6202 100.582 23.0431C101.026 23.4659 101.248 23.9919 101.248 24.621C101.248 25.0026 101.17 25.3584 101.016 25.6884C100.861 26.0082 100.639 26.2918 100.35 26.5393C100.072 26.7765 99.7367 26.957 99.3448 27.0807C98.9632 27.2148 98.5404 27.2819 98.0763 27.2819ZM106.469 27.2819C105.871 27.2819 105.319 27.1787 104.814 26.9725C104.319 26.7559 103.886 26.4568 103.514 26.0752C103.143 25.6936 102.854 25.245 102.648 24.7293C102.452 24.2033 102.354 23.6258 102.354 22.9967C102.354 22.3882 102.452 21.8261 102.648 21.3104C102.854 20.7948 103.133 20.3461 103.483 19.9645C103.844 19.5726 104.267 19.2684 104.752 19.0518C105.237 18.8352 105.763 18.7269 106.33 18.7269C106.897 18.7269 107.413 18.8301 107.877 19.0363C108.351 19.2323 108.759 19.5159 109.099 19.8872C109.45 20.2585 109.718 20.7019 109.903 21.2176C110.089 21.723 110.182 22.285 110.182 22.9038V23.4298H104.195C104.246 23.9042 104.37 24.3168 104.566 24.6674C104.772 25.0078 105.035 25.2708 105.355 25.4564C105.675 25.642 106.046 25.7349 106.469 25.7349C107.315 25.7349 107.975 25.3584 108.449 24.6055L110.012 25.2089C109.826 25.6317 109.553 26.003 109.192 26.3227C108.841 26.6321 108.429 26.8693 107.954 27.0343C107.49 27.1993 106.995 27.2819 106.469 27.2819ZM106.33 20.1657C105.969 20.1657 105.644 20.2482 105.355 20.4132C105.077 20.5782 104.839 20.8102 104.644 21.1093C104.448 21.4084 104.314 21.7591 104.241 22.1613H108.325C108.264 21.7591 108.145 21.4084 107.97 21.1093C107.794 20.8102 107.562 20.5782 107.273 20.4132C106.995 20.2482 106.68 20.1657 106.33 20.1657ZM111.699 27.0498V18.959H113.323L113.4 20.2894C113.607 19.8356 113.89 19.485 114.251 19.2375C114.623 18.9796 115.056 18.8507 115.551 18.8507C115.705 18.8507 115.855 18.861 115.999 18.8816C116.144 18.9023 116.273 18.9384 116.386 18.9899L116.185 20.7226C116.072 20.6813 115.953 20.6555 115.829 20.6452C115.705 20.6246 115.582 20.6143 115.458 20.6143C114.839 20.6143 114.354 20.8206 114.004 21.2331C113.653 21.6456 113.478 22.218 113.478 22.9503V27.0498H111.699ZM120.465 27.2819C119.939 27.2819 119.45 27.1942 118.996 27.0189C118.552 26.8435 118.171 26.596 117.851 26.2763C117.542 25.9463 117.32 25.5595 117.186 25.1161L118.795 24.6984C118.929 25.049 119.145 25.3223 119.444 25.5183C119.744 25.7142 120.089 25.8122 120.481 25.8122C120.883 25.8122 121.213 25.7194 121.471 25.5337C121.729 25.3378 121.858 25.0903 121.858 24.7912C121.858 24.5334 121.755 24.3168 121.548 24.1414C121.342 23.9661 121.007 23.8372 120.543 23.7547L120.032 23.6619C119.166 23.5072 118.511 23.2287 118.068 22.8265C117.634 22.4243 117.418 21.9086 117.418 21.2795C117.418 20.7741 117.547 20.3307 117.805 19.9491C118.062 19.5675 118.418 19.2684 118.872 19.0518C119.326 18.8352 119.847 18.7269 120.435 18.7269C120.94 18.7269 121.404 18.8146 121.827 18.9899C122.25 19.1653 122.605 19.4128 122.894 19.7325C123.183 20.0522 123.389 20.4286 123.513 20.8618L121.92 21.2486C121.796 20.9185 121.6 20.6607 121.332 20.4751C121.074 20.2791 120.77 20.1811 120.419 20.1811C120.058 20.1811 119.759 20.2739 119.522 20.4596C119.285 20.6349 119.166 20.8618 119.166 21.1403C119.166 21.3775 119.269 21.5734 119.475 21.7281C119.692 21.8828 120.053 22.0066 120.558 22.0994L121.069 22.1922C121.894 22.3366 122.528 22.6202 122.972 23.0431C123.415 23.4659 123.637 23.9919 123.637 24.621C123.637 25.0026 123.559 25.3584 123.405 25.6884C123.25 26.0082 123.028 26.2918 122.74 26.5393C122.461 26.7765 122.126 26.957 121.734 27.0807C121.352 27.2148 120.93 27.2819 120.465 27.2819Z" fill="black"/>
</svg>
