<svg width="135" height="42" viewBox="0 0 135 42" fill="none" xmlns="http://www.w3.org/2000/svg">
<rect x="0.25" width="41.99" height="41.99" rx="11.05" fill="#28D193"/>
<path d="M15.8515 14.9955L13.6607 16.0863C13.3582 16.233 13.0007 16.013 13.0007 15.6738V13.4921C13.0007 13.153 13.3582 12.933 13.6607 13.0796L15.8423 14.1705C16.1815 14.3446 16.1815 14.8213 15.8515 14.9955ZM26.7507 13.4921V15.6738C26.7507 16.013 27.1082 16.233 27.4107 16.0863L29.5923 14.9955C29.9315 14.8305 29.9315 14.3446 29.5923 14.1796L27.4107 13.0888C27.1082 12.933 26.7507 13.153 26.7507 13.4921ZM20.334 12.5755V14.7571C20.334 15.0963 20.6915 15.3163 20.994 15.1696L23.1757 14.0788C23.5148 13.9138 23.5148 13.428 23.1757 13.263L20.994 12.1721C20.6915 12.0163 20.334 12.2363 20.334 12.5755ZM14.834 19.203C16.099 19.6521 18.2898 20.083 21.2507 20.083C24.2115 20.083 26.4023 19.6521 27.6673 19.203C27.6673 19.038 25.119 18.2496 21.2507 18.2496C17.3823 18.2496 14.834 19.038 14.834 19.203ZM23.084 25.583H19.4173C18.9132 25.583 18.5007 25.9955 18.5007 26.4996V30.0563C14.779 29.6988 12.084 28.6446 12.084 27.4163V19.1663C12.084 17.6446 16.1907 16.4163 21.2507 16.4163C26.3107 16.4163 30.4173 17.6446 30.4173 19.1663V27.4163C30.4173 28.6446 27.7223 29.6896 24.0007 30.0471V26.4996C24.0007 25.9955 23.5882 25.583 23.084 25.583Z" fill="white"/>
<path d="M56.5829 27.0498V16.0661H63.0958V17.7214H58.4393V20.8773H62.6162V22.5326H58.4393V27.0498H56.5829ZM68.1649 27.2819C67.577 27.2819 67.0304 27.1787 66.525 26.9725C66.03 26.7559 65.5968 26.4568 65.2256 26.0752C64.8543 25.6833 64.5655 25.2295 64.3592 24.7138C64.153 24.1879 64.0498 23.6155 64.0498 22.9967C64.0498 22.3882 64.153 21.8261 64.3592 21.3104C64.5655 20.7845 64.8543 20.3307 65.2256 19.9491C65.6071 19.5572 66.0506 19.2581 66.556 19.0518C67.0716 18.8352 67.6286 18.7269 68.2267 18.7269C68.8146 18.7269 69.356 18.8352 69.8511 19.0518C70.3564 19.2581 70.7948 19.5572 71.166 19.9491C71.5373 20.3307 71.8261 20.7793 72.0324 21.295C72.2386 21.8106 72.3418 22.3779 72.3418 22.9967C72.3418 23.6155 72.2386 24.1879 72.0324 24.7138C71.8261 25.2295 71.5322 25.6833 71.1506 26.0752C70.7793 26.4568 70.3358 26.7559 69.8201 26.9725C69.3148 27.1787 68.763 27.2819 68.1649 27.2819ZM68.1958 25.673C68.6393 25.673 69.0363 25.5595 69.387 25.3326C69.7376 25.0954 70.0109 24.7757 70.2069 24.3735C70.4132 23.9713 70.5163 23.5123 70.5163 22.9967C70.5163 22.481 70.4132 22.0272 70.2069 21.6353C70.0109 21.2331 69.7376 20.9185 69.387 20.6916C69.0363 20.4544 68.6393 20.3358 68.1958 20.3358C67.7523 20.3358 67.3553 20.4544 67.0046 20.6916C66.654 20.9185 66.3755 21.2331 66.1692 21.6353C65.9733 22.0272 65.8753 22.481 65.8753 22.9967C65.8753 23.5123 65.9733 23.9713 66.1692 24.3735C66.3755 24.7757 66.654 25.0954 67.0046 25.3326C67.3553 25.5595 67.7523 25.673 68.1958 25.673ZM73.9082 27.0498V18.959H75.5326L75.6099 20.2894C75.8162 19.8356 76.0998 19.485 76.4608 19.2375C76.832 18.9796 77.2652 18.8507 77.7602 18.8507C77.9149 18.8507 78.0645 18.861 78.2089 18.8816C78.3533 18.9023 78.4822 18.9384 78.5956 18.9899L78.3945 20.7226C78.2811 20.6813 78.1625 20.6555 78.0387 20.6452C77.9149 20.6246 77.7912 20.6143 77.6674 20.6143C77.0486 20.6143 76.5639 20.8206 76.2132 21.2331C75.8626 21.6456 75.6873 22.218 75.6873 22.9503V27.0498H73.9082ZM85.5507 27.0498L82.4567 18.959H84.4059L86.4789 25.1934L88.5674 18.959H90.4547L87.3607 27.0498H85.5507ZM95.1467 27.2819C94.5485 27.2819 93.9968 27.1787 93.4914 26.9725C92.9964 26.7559 92.5632 26.4568 92.1919 26.0752C91.8207 25.6936 91.5319 25.245 91.3256 24.7293C91.1297 24.2033 91.0317 23.6258 91.0317 22.9967C91.0317 22.3882 91.1297 21.8261 91.3256 21.3104C91.5319 20.7948 91.8103 20.3461 92.161 19.9645C92.522 19.5726 92.9448 19.2684 93.4295 19.0518C93.9143 18.8352 94.4402 18.7269 95.0075 18.7269C95.5747 18.7269 96.0904 18.8301 96.5545 19.0363C97.0289 19.2323 97.4363 19.5159 97.7766 19.8872C98.1273 20.2585 98.3954 20.7019 98.5811 21.2176C98.7667 21.723 98.8595 22.285 98.8595 22.9038V23.4298H92.8726C92.9242 23.9042 93.0479 24.3168 93.2439 24.6674C93.4502 25.0078 93.7132 25.2708 94.0329 25.4564C94.3526 25.642 94.7239 25.7349 95.1467 25.7349C95.9924 25.7349 96.6525 25.3584 97.1269 24.6055L98.6893 25.2089C98.5037 25.6317 98.2304 26.003 97.8694 26.3227C97.5188 26.6321 97.1062 26.8693 96.6318 27.0343C96.1677 27.1993 95.6727 27.2819 95.1467 27.2819ZM95.0075 20.1657C94.6465 20.1657 94.3216 20.2482 94.0329 20.4132C93.7544 20.5782 93.5172 20.8102 93.3213 21.1093C93.1253 21.4084 92.9912 21.7591 92.919 22.1613H97.0031C96.9412 21.7591 96.8226 21.4084 96.6473 21.1093C96.472 20.8102 96.2399 20.5782 95.9512 20.4132C95.6727 20.2482 95.3581 20.1657 95.0075 20.1657ZM100.376 27.0498V18.959H102.001L102.063 20.0728C102.3 19.6603 102.63 19.3354 103.053 19.0982C103.486 18.8507 103.981 18.7269 104.538 18.7269C105.146 18.7269 105.672 18.8713 106.116 19.1601C106.57 19.4489 106.92 19.8563 107.168 20.3822C107.415 20.9082 107.539 21.527 107.539 22.2386V27.0498H105.76V22.4397C105.76 21.7797 105.61 21.264 105.311 20.8927C105.023 20.5215 104.615 20.3358 104.089 20.3358C103.718 20.3358 103.383 20.4235 103.084 20.5988C102.795 20.7741 102.568 21.0113 102.403 21.3104C102.238 21.6095 102.155 21.955 102.155 22.3469V27.0498H100.376ZM113.014 27.2819C112.292 27.2819 111.663 27.1272 111.127 26.8178C110.601 26.5084 110.188 26.07 109.889 25.5028C109.6 24.9253 109.456 24.2497 109.456 23.4762V18.959H111.235V23.5072C111.235 24.1775 111.395 24.7087 111.715 25.1006C112.034 25.4822 112.473 25.673 113.03 25.673C113.586 25.673 114.025 25.4822 114.344 25.1006C114.664 24.7087 114.824 24.1775 114.824 23.5072V18.959H116.603V23.4762C116.603 24.2394 116.454 24.9098 116.154 25.4873C115.866 26.0546 115.453 26.498 114.917 26.8178C114.381 27.1272 113.746 27.2819 113.014 27.2819ZM122.28 27.2819C121.681 27.2819 121.13 27.1787 120.624 26.9725C120.129 26.7559 119.696 26.4568 119.325 26.0752C118.954 25.6936 118.665 25.245 118.459 24.7293C118.263 24.2033 118.165 23.6258 118.165 22.9967C118.165 22.3882 118.263 21.8261 118.459 21.3104C118.665 20.7948 118.943 20.3461 119.294 19.9645C119.655 19.5726 120.078 19.2684 120.562 19.0518C121.047 18.8352 121.573 18.7269 122.14 18.7269C122.708 18.7269 123.223 18.8301 123.687 19.0363C124.162 19.2323 124.569 19.5159 124.91 19.8872C125.26 20.2585 125.528 20.7019 125.714 21.2176C125.9 21.723 125.992 22.285 125.992 22.9038V23.4298H120.006C120.057 23.9042 120.181 24.3168 120.377 24.6674C120.583 25.0078 120.846 25.2708 121.166 25.4564C121.486 25.642 121.857 25.7349 122.28 25.7349C123.125 25.7349 123.785 25.3584 124.26 24.6055L125.822 25.2089C125.637 25.6317 125.363 26.003 125.002 26.3227C124.652 26.6321 124.239 26.8693 123.765 27.0343C123.301 27.1993 122.806 27.2819 122.28 27.2819ZM122.14 20.1657C121.779 20.1657 121.455 20.2482 121.166 20.4132C120.887 20.5782 120.65 20.8102 120.454 21.1093C120.258 21.4084 120.124 21.7591 120.052 22.1613H124.136C124.074 21.7591 123.956 21.4084 123.78 21.1093C123.605 20.8102 123.373 20.5782 123.084 20.4132C122.806 20.2482 122.491 20.1657 122.14 20.1657ZM130.339 27.2819C129.813 27.2819 129.323 27.1942 128.869 27.0189C128.426 26.8435 128.044 26.596 127.724 26.2763C127.415 25.9463 127.193 25.5595 127.059 25.1161L128.668 24.6984C128.802 25.049 129.019 25.3223 129.318 25.5183C129.617 25.7142 129.962 25.8122 130.354 25.8122C130.757 25.8122 131.087 25.7194 131.344 25.5337C131.602 25.3378 131.731 25.0903 131.731 24.7912C131.731 24.5334 131.628 24.3168 131.422 24.1414C131.216 23.9661 130.88 23.8372 130.416 23.7547L129.906 23.6619C129.039 23.5072 128.385 23.2287 127.941 22.8265C127.508 22.4243 127.291 21.9086 127.291 21.2795C127.291 20.7741 127.42 20.3307 127.678 19.9491C127.936 19.5675 128.292 19.2684 128.745 19.0518C129.199 18.8352 129.72 18.7269 130.308 18.7269C130.813 18.7269 131.277 18.8146 131.7 18.9899C132.123 19.1653 132.479 19.4128 132.768 19.7325C133.056 20.0522 133.263 20.4286 133.386 20.8618L131.793 21.2486C131.669 20.9185 131.473 20.6607 131.205 20.4751C130.947 20.2791 130.643 20.1811 130.292 20.1811C129.932 20.1811 129.632 20.2739 129.395 20.4596C129.158 20.6349 129.039 20.8618 129.039 21.1403C129.039 21.3775 129.143 21.5734 129.349 21.7281C129.565 21.8828 129.926 22.0066 130.432 22.0994L130.942 22.1922C131.767 22.3366 132.402 22.6202 132.845 23.0431C133.289 23.4659 133.51 23.9919 133.51 24.621C133.51 25.0026 133.433 25.3584 133.278 25.6884C133.124 26.0082 132.902 26.2918 132.613 26.5393C132.335 26.7765 131.999 26.957 131.607 27.0807C131.226 27.2148 130.803 27.2819 130.339 27.2819Z" fill="black"/>
</svg>
