<?xml version="1.0" standalone="no"?>
<!DOCTYPE svg PUBLIC "-//W3C//DTD SVG 20010904//EN"
 "http://www.w3.org/TR/2001/REC-SVG-20010904/DTD/svg10.dtd">
<svg version="1.0" xmlns="http://www.w3.org/2000/svg"
 width="164.000000pt" height="164.000000pt" viewBox="0 0 164.000000 164.000000"
 preserveAspectRatio="xMidYMid meet">
<metadata>
Created by potrace 1.14, written by Peter Selinger 2001-2017
</metadata>
<g transform="translate(0.000000,164.000000) scale(0.100000,-0.100000)"
fill="#000000" stroke="none">
<path d="M177 1622 c-16 -17 -17 -81 -17 -804 0 -748 1 -786 18 -801 17 -15
60 -17 415 -17 436 0 484 5 602 60 92 43 195 145 236 234 78 168 35 365 -109
497 -31 28 -61 58 -66 66 -5 10 3 32 28 68 74 107 96 223 65 344 -44 173 -175
296 -374 350 -62 18 -108 20 -425 21 -336 1 -357 0 -373 -18z m710 -247 c99
-32 195 -123 215 -206 9 -35 8 -43 -9 -60 -15 -16 -36 -20 -108 -22 -86 -3
-90 -2 -122 26 -81 72 -242 27 -209 -58 12 -32 91 -64 221 -90 11 -2 38 -10
61 -18 118 -43 178 -93 223 -187 22 -47 26 -68 26 -145 0 -80 -3 -96 -29 -142
-64 -116 -169 -196 -288 -219 -63 -12 -173 -11 -232 3 -118 27 -231 111 -279
205 -30 60 -32 75 -13 101 15 19 23 22 107 32 30 4 56 8 57 10 9 9 62 -19 67
-35 9 -30 78 -70 137 -80 148 -24 273 72 227 174 -15 33 -72 59 -189 85 -173
39 -259 96 -311 206 -68 142 -6 323 135 393 92 47 219 58 313 27z"/>
</g>
</svg>
